G75*
%MOIN*%
%OFA0B0*%
%FSLAX25Y25*%
%IPPOS*%
%LPD*%
%AMOC8*
5,1,8,0,0,1.08239X$1,22.5*
%
%ADD10C,0.00000*%
%ADD11OC8,0.05200*%
%ADD12C,0.05200*%
%ADD13C,0.05150*%
%ADD14C,0.11220*%
%ADD15C,0.07400*%
%ADD16C,0.05200*%
%ADD17R,0.05937X0.05937*%
%ADD18R,0.05150X0.05150*%
%ADD19C,0.00600*%
%ADD20C,0.02578*%
%ADD21C,0.01600*%
D10*
X0006300Y0007048D02*
X0006300Y0203898D01*
X0203150Y0203898D01*
X0203150Y0007048D01*
X0006300Y0007048D01*
D11*
X0021300Y0022048D03*
X0031300Y0022048D03*
X0046300Y0022048D03*
X0056300Y0022048D03*
X0056300Y0042048D03*
X0046300Y0042048D03*
X0031300Y0042048D03*
X0021300Y0042048D03*
X0141300Y0152048D03*
X0138300Y0181048D03*
X0138300Y0195048D03*
X0155300Y0194548D03*
X0181300Y0152048D03*
X0155300Y0081548D03*
X0153800Y0039048D03*
X0148800Y0031548D03*
X0143800Y0039048D03*
X0085300Y0174048D03*
X0098300Y0181048D03*
X0098300Y0195048D03*
X0081300Y0192048D03*
X0071300Y0192048D03*
X0061300Y0192048D03*
X0051300Y0192048D03*
X0045300Y0174048D03*
D12*
X0135300Y0081548D03*
X0155300Y0174548D03*
D13*
X0167221Y0036347D03*
X0171946Y0033198D03*
X0167221Y0030048D03*
X0171946Y0026898D03*
X0167221Y0023749D03*
D14*
X0187300Y0015678D03*
X0187300Y0044418D03*
D15*
X0198800Y0072048D03*
X0198800Y0082048D03*
X0198800Y0092048D03*
X0198800Y0102048D03*
X0198800Y0112048D03*
X0198800Y0122048D03*
X0198800Y0132048D03*
X0198800Y0142048D03*
X0198800Y0152048D03*
X0198800Y0162048D03*
X0198800Y0172048D03*
X0198800Y0182048D03*
X0198800Y0192048D03*
X0076300Y0087048D03*
X0076300Y0077048D03*
X0076300Y0067048D03*
X0011300Y0072048D03*
X0011300Y0082048D03*
X0011300Y0092048D03*
X0011300Y0102048D03*
X0011300Y0112048D03*
X0011300Y0122048D03*
X0011300Y0132048D03*
X0011300Y0142048D03*
X0016300Y0162048D03*
X0036300Y0162048D03*
X0036300Y0187048D03*
X0016300Y0187048D03*
D16*
X0088700Y0162048D02*
X0093900Y0162048D01*
X0093900Y0152048D02*
X0088700Y0152048D01*
X0088700Y0142048D02*
X0093900Y0142048D01*
X0093900Y0132048D02*
X0088700Y0132048D01*
X0088700Y0122048D02*
X0093900Y0122048D01*
X0093900Y0112048D02*
X0088700Y0112048D01*
X0088700Y0102048D02*
X0093900Y0102048D01*
X0093900Y0092048D02*
X0088700Y0092048D01*
X0088700Y0082048D02*
X0093900Y0082048D01*
X0093900Y0072048D02*
X0088700Y0072048D01*
X0088700Y0062048D02*
X0093900Y0062048D01*
X0093900Y0052048D02*
X0088700Y0052048D01*
X0088700Y0042048D02*
X0093900Y0042048D01*
X0093900Y0032048D02*
X0088700Y0032048D01*
X0118700Y0032048D02*
X0123900Y0032048D01*
X0123900Y0042048D02*
X0118700Y0042048D01*
X0118700Y0052048D02*
X0123900Y0052048D01*
X0123900Y0062048D02*
X0118700Y0062048D01*
X0118700Y0072048D02*
X0123900Y0072048D01*
X0123900Y0082048D02*
X0118700Y0082048D01*
X0118700Y0092048D02*
X0123900Y0092048D01*
X0123900Y0102048D02*
X0118700Y0102048D01*
X0118700Y0112048D02*
X0123900Y0112048D01*
X0123900Y0122048D02*
X0118700Y0122048D01*
X0118700Y0132048D02*
X0123900Y0132048D01*
X0123900Y0142048D02*
X0118700Y0142048D01*
X0118700Y0152048D02*
X0123900Y0152048D01*
X0123900Y0162048D02*
X0118700Y0162048D01*
D17*
X0128052Y0017548D03*
X0159548Y0017548D03*
D18*
X0151674Y0017548D03*
X0143800Y0017548D03*
X0135926Y0017548D03*
D19*
X0132383Y0013820D02*
X0132730Y0013473D01*
X0139122Y0013473D01*
X0139863Y0014214D01*
X0140604Y0013473D01*
X0146996Y0013473D01*
X0147737Y0014214D01*
X0148478Y0013473D01*
X0154870Y0013473D01*
X0155217Y0013820D01*
X0155958Y0013080D01*
X0163138Y0013080D01*
X0164017Y0013958D01*
X0164017Y0018080D01*
X0164622Y0017474D01*
X0171395Y0017474D01*
X0178220Y0024299D01*
X0178220Y0029498D01*
X0175818Y0031900D01*
X0176020Y0032387D01*
X0176020Y0034008D01*
X0175400Y0035506D01*
X0174254Y0036652D01*
X0172756Y0037272D01*
X0171135Y0037272D01*
X0170999Y0037216D01*
X0170947Y0037477D01*
X0170655Y0038183D01*
X0170231Y0038817D01*
X0169691Y0039357D01*
X0169057Y0039781D01*
X0168351Y0040073D01*
X0167603Y0040222D01*
X0167521Y0040222D01*
X0167521Y0036647D01*
X0166921Y0036647D01*
X0166921Y0036047D01*
X0163346Y0036047D01*
X0163346Y0035966D01*
X0163495Y0035217D01*
X0163787Y0034512D01*
X0164212Y0033877D01*
X0164750Y0033339D01*
X0163767Y0032356D01*
X0163146Y0030859D01*
X0163146Y0029237D01*
X0163767Y0027740D01*
X0164608Y0026898D01*
X0163767Y0026057D01*
X0163409Y0025193D01*
X0162601Y0026001D01*
X0161253Y0027348D01*
X0099253Y0027348D01*
X0097125Y0029475D01*
X0097376Y0029726D01*
X0098000Y0031232D01*
X0098000Y0032864D01*
X0097376Y0034370D01*
X0096222Y0035524D01*
X0094716Y0036148D01*
X0087884Y0036148D01*
X0086378Y0035524D01*
X0085224Y0034370D01*
X0084600Y0032864D01*
X0084600Y0031232D01*
X0085224Y0029726D01*
X0086378Y0028572D01*
X0087884Y0027948D01*
X0092147Y0027948D01*
X0096000Y0024095D01*
X0097347Y0022748D01*
X0159348Y0022748D01*
X0160080Y0022017D01*
X0155958Y0022017D01*
X0155217Y0021276D01*
X0154870Y0021623D01*
X0148478Y0021623D01*
X0147737Y0020882D01*
X0146996Y0021623D01*
X0140604Y0021623D01*
X0139863Y0020882D01*
X0139122Y0021623D01*
X0132730Y0021623D01*
X0132383Y0021276D01*
X0131642Y0022017D01*
X0124462Y0022017D01*
X0123583Y0021138D01*
X0123583Y0013958D01*
X0124462Y0013080D01*
X0131642Y0013080D01*
X0132383Y0013820D01*
X0132571Y0013632D02*
X0132194Y0013632D01*
X0139281Y0013632D02*
X0140445Y0013632D01*
X0147155Y0013632D02*
X0148319Y0013632D01*
X0155029Y0013632D02*
X0155406Y0013632D01*
X0155354Y0021412D02*
X0155081Y0021412D01*
X0155952Y0022011D02*
X0131648Y0022011D01*
X0132246Y0021412D02*
X0132519Y0021412D01*
X0139333Y0021412D02*
X0140393Y0021412D01*
X0147207Y0021412D02*
X0148267Y0021412D01*
X0147102Y0027448D02*
X0150498Y0027448D01*
X0152900Y0029850D01*
X0152900Y0033246D01*
X0150498Y0035648D01*
X0147102Y0035648D01*
X0144700Y0033246D01*
X0144700Y0029850D01*
X0147102Y0027448D01*
X0146554Y0027996D02*
X0124831Y0027996D01*
X0124716Y0027948D02*
X0126222Y0028572D01*
X0127376Y0029726D01*
X0128000Y0031232D01*
X0128000Y0032864D01*
X0127376Y0034370D01*
X0126222Y0035524D01*
X0124716Y0036148D01*
X0117884Y0036148D01*
X0116378Y0035524D01*
X0115224Y0034370D01*
X0114600Y0032864D01*
X0114600Y0031232D01*
X0115224Y0029726D01*
X0116378Y0028572D01*
X0117884Y0027948D01*
X0124716Y0027948D01*
X0126245Y0028594D02*
X0145955Y0028594D01*
X0145357Y0029193D02*
X0126843Y0029193D01*
X0127403Y0029791D02*
X0144758Y0029791D01*
X0144700Y0030390D02*
X0127651Y0030390D01*
X0127899Y0030988D02*
X0144700Y0030988D01*
X0144700Y0031587D02*
X0128000Y0031587D01*
X0128000Y0032186D02*
X0144700Y0032186D01*
X0144700Y0032784D02*
X0128000Y0032784D01*
X0127785Y0033383D02*
X0144836Y0033383D01*
X0145435Y0033981D02*
X0127537Y0033981D01*
X0127167Y0034580D02*
X0146033Y0034580D01*
X0145498Y0034948D02*
X0147900Y0037350D01*
X0147900Y0040746D01*
X0145498Y0043148D01*
X0142102Y0043148D01*
X0139700Y0040746D01*
X0139700Y0037350D01*
X0142102Y0034948D01*
X0145498Y0034948D01*
X0145728Y0035178D02*
X0146632Y0035178D01*
X0146327Y0035777D02*
X0151556Y0035777D01*
X0150968Y0035178D02*
X0152155Y0035178D01*
X0152185Y0035148D02*
X0153500Y0035148D01*
X0153500Y0038748D01*
X0154100Y0038748D01*
X0154100Y0035148D01*
X0155415Y0035148D01*
X0157700Y0037433D01*
X0157700Y0038748D01*
X0154100Y0038748D01*
X0154100Y0039348D01*
X0157700Y0039348D01*
X0157700Y0040663D01*
X0155415Y0042948D01*
X0154100Y0042948D01*
X0154100Y0039348D01*
X0153500Y0039348D01*
X0153500Y0038748D01*
X0149900Y0038748D01*
X0149900Y0037433D01*
X0152185Y0035148D01*
X0151567Y0034580D02*
X0163759Y0034580D01*
X0163511Y0035178D02*
X0155445Y0035178D01*
X0156044Y0035777D02*
X0163384Y0035777D01*
X0163346Y0036647D02*
X0166921Y0036647D01*
X0166921Y0040222D01*
X0166840Y0040222D01*
X0166091Y0040073D01*
X0165386Y0039781D01*
X0164751Y0039357D01*
X0164212Y0038817D01*
X0163787Y0038183D01*
X0163495Y0037477D01*
X0163346Y0036729D01*
X0163346Y0036647D01*
X0163395Y0036974D02*
X0157241Y0036974D01*
X0157700Y0037572D02*
X0163535Y0037572D01*
X0163782Y0038171D02*
X0157700Y0038171D01*
X0157700Y0039368D02*
X0164767Y0039368D01*
X0164179Y0038769D02*
X0154100Y0038769D01*
X0154100Y0038171D02*
X0153500Y0038171D01*
X0153500Y0038769D02*
X0147900Y0038769D01*
X0147900Y0038171D02*
X0149900Y0038171D01*
X0149900Y0037572D02*
X0147900Y0037572D01*
X0147524Y0036974D02*
X0150359Y0036974D01*
X0150958Y0036375D02*
X0146925Y0036375D01*
X0147900Y0039368D02*
X0149900Y0039368D01*
X0149900Y0039348D02*
X0153500Y0039348D01*
X0153500Y0042948D01*
X0152185Y0042948D01*
X0149900Y0040663D01*
X0149900Y0039348D01*
X0149900Y0039966D02*
X0147900Y0039966D01*
X0147900Y0040565D02*
X0149900Y0040565D01*
X0150400Y0041163D02*
X0147483Y0041163D01*
X0146885Y0041762D02*
X0150998Y0041762D01*
X0151597Y0042360D02*
X0146286Y0042360D01*
X0145688Y0042959D02*
X0180208Y0042959D01*
X0180190Y0043004D02*
X0181272Y0040390D01*
X0183272Y0038390D01*
X0185886Y0037308D01*
X0188714Y0037308D01*
X0191328Y0038390D01*
X0193328Y0040390D01*
X0194410Y0043004D01*
X0194410Y0045832D01*
X0193328Y0048446D01*
X0191328Y0050446D01*
X0188714Y0051528D01*
X0185886Y0051528D01*
X0183272Y0050446D01*
X0181272Y0048446D01*
X0180190Y0045832D01*
X0180190Y0043004D01*
X0180190Y0043557D02*
X0127713Y0043557D01*
X0127961Y0042959D02*
X0141912Y0042959D01*
X0141314Y0042360D02*
X0128000Y0042360D01*
X0128000Y0042864D02*
X0127376Y0044370D01*
X0126222Y0045524D01*
X0124716Y0046148D01*
X0117884Y0046148D01*
X0116378Y0045524D01*
X0115224Y0044370D01*
X0114600Y0042864D01*
X0114600Y0041232D01*
X0115224Y0039726D01*
X0116378Y0038572D01*
X0117884Y0037948D01*
X0124716Y0037948D01*
X0126222Y0038572D01*
X0127376Y0039726D01*
X0128000Y0041232D01*
X0128000Y0042864D01*
X0128000Y0041762D02*
X0140715Y0041762D01*
X0140117Y0041163D02*
X0127971Y0041163D01*
X0127723Y0040565D02*
X0139700Y0040565D01*
X0139700Y0039966D02*
X0127475Y0039966D01*
X0127018Y0039368D02*
X0139700Y0039368D01*
X0139700Y0038769D02*
X0126419Y0038769D01*
X0125253Y0038171D02*
X0139700Y0038171D01*
X0139700Y0037572D02*
X0007800Y0037572D01*
X0007800Y0036974D02*
X0140076Y0036974D01*
X0140675Y0036375D02*
X0007800Y0036375D01*
X0007800Y0035777D02*
X0086988Y0035777D01*
X0086032Y0035178D02*
X0007800Y0035178D01*
X0007800Y0034580D02*
X0085433Y0034580D01*
X0085063Y0033981D02*
X0007800Y0033981D01*
X0007800Y0033383D02*
X0084815Y0033383D01*
X0084600Y0032784D02*
X0007800Y0032784D01*
X0007800Y0032186D02*
X0084600Y0032186D01*
X0084600Y0031587D02*
X0007800Y0031587D01*
X0007800Y0030988D02*
X0084701Y0030988D01*
X0084949Y0030390D02*
X0007800Y0030390D01*
X0007800Y0029791D02*
X0085197Y0029791D01*
X0085757Y0029193D02*
X0007800Y0029193D01*
X0007800Y0028594D02*
X0086355Y0028594D01*
X0087769Y0027996D02*
X0007800Y0027996D01*
X0007800Y0027397D02*
X0092698Y0027397D01*
X0093296Y0026799D02*
X0007800Y0026799D01*
X0007800Y0026200D02*
X0093895Y0026200D01*
X0094493Y0025602D02*
X0058262Y0025602D01*
X0057915Y0025948D02*
X0056600Y0025948D01*
X0056600Y0022348D01*
X0060200Y0022348D01*
X0060200Y0023663D01*
X0057915Y0025948D01*
X0058860Y0025003D02*
X0095092Y0025003D01*
X0095690Y0024405D02*
X0059459Y0024405D01*
X0060057Y0023806D02*
X0096289Y0023806D01*
X0096887Y0023208D02*
X0060200Y0023208D01*
X0060200Y0022609D02*
X0159487Y0022609D01*
X0163000Y0025602D02*
X0163578Y0025602D01*
X0163910Y0026200D02*
X0162401Y0026200D01*
X0161803Y0026799D02*
X0164509Y0026799D01*
X0164109Y0027397D02*
X0099203Y0027397D01*
X0098605Y0027996D02*
X0117769Y0027996D01*
X0116355Y0028594D02*
X0098006Y0028594D01*
X0097408Y0029193D02*
X0115757Y0029193D01*
X0115197Y0029791D02*
X0097403Y0029791D01*
X0097651Y0030390D02*
X0114949Y0030390D01*
X0114701Y0030988D02*
X0097899Y0030988D01*
X0098000Y0031587D02*
X0114600Y0031587D01*
X0114600Y0032186D02*
X0098000Y0032186D01*
X0098000Y0032784D02*
X0114600Y0032784D01*
X0114815Y0033383D02*
X0097785Y0033383D01*
X0097537Y0033981D02*
X0115063Y0033981D01*
X0115433Y0034580D02*
X0097167Y0034580D01*
X0096568Y0035178D02*
X0116032Y0035178D01*
X0116988Y0035777D02*
X0095612Y0035777D01*
X0094716Y0037948D02*
X0096222Y0038572D01*
X0097376Y0039726D01*
X0098000Y0041232D01*
X0098000Y0042864D01*
X0097376Y0044370D01*
X0096222Y0045524D01*
X0094716Y0046148D01*
X0087884Y0046148D01*
X0086378Y0045524D01*
X0085224Y0044370D01*
X0084600Y0042864D01*
X0084600Y0041232D01*
X0085224Y0039726D01*
X0086378Y0038572D01*
X0087884Y0037948D01*
X0094716Y0037948D01*
X0095253Y0038171D02*
X0117347Y0038171D01*
X0116181Y0038769D02*
X0096419Y0038769D01*
X0097018Y0039368D02*
X0115582Y0039368D01*
X0115125Y0039966D02*
X0097475Y0039966D01*
X0097723Y0040565D02*
X0114877Y0040565D01*
X0114629Y0041163D02*
X0097971Y0041163D01*
X0098000Y0041762D02*
X0114600Y0041762D01*
X0114600Y0042360D02*
X0098000Y0042360D01*
X0097961Y0042959D02*
X0114639Y0042959D01*
X0114887Y0043557D02*
X0097713Y0043557D01*
X0097465Y0044156D02*
X0115135Y0044156D01*
X0115608Y0044754D02*
X0096992Y0044754D01*
X0096394Y0045353D02*
X0116206Y0045353D01*
X0117409Y0045951D02*
X0095191Y0045951D01*
X0094716Y0047948D02*
X0096222Y0048572D01*
X0097376Y0049726D01*
X0098000Y0051232D01*
X0098000Y0052864D01*
X0097376Y0054370D01*
X0096222Y0055524D01*
X0094716Y0056148D01*
X0087884Y0056148D01*
X0086378Y0055524D01*
X0085224Y0054370D01*
X0084600Y0052864D01*
X0084600Y0051232D01*
X0085224Y0049726D01*
X0086378Y0048572D01*
X0087884Y0047948D01*
X0094716Y0047948D01*
X0095675Y0048345D02*
X0116925Y0048345D01*
X0116378Y0048572D02*
X0117884Y0047948D01*
X0124716Y0047948D01*
X0126222Y0048572D01*
X0127376Y0049726D01*
X0128000Y0051232D01*
X0128000Y0052864D01*
X0127376Y0054370D01*
X0126222Y0055524D01*
X0124716Y0056148D01*
X0117884Y0056148D01*
X0116378Y0055524D01*
X0115224Y0054370D01*
X0114600Y0052864D01*
X0114600Y0051232D01*
X0115224Y0049726D01*
X0116378Y0048572D01*
X0116006Y0048944D02*
X0096594Y0048944D01*
X0097193Y0049542D02*
X0115407Y0049542D01*
X0115052Y0050141D02*
X0097548Y0050141D01*
X0097796Y0050739D02*
X0114804Y0050739D01*
X0114600Y0051338D02*
X0098000Y0051338D01*
X0098000Y0051936D02*
X0114600Y0051936D01*
X0114600Y0052535D02*
X0098000Y0052535D01*
X0097888Y0053133D02*
X0114712Y0053133D01*
X0114960Y0053732D02*
X0097640Y0053732D01*
X0097392Y0054330D02*
X0115208Y0054330D01*
X0115783Y0054929D02*
X0096817Y0054929D01*
X0096214Y0055527D02*
X0116386Y0055527D01*
X0117831Y0056126D02*
X0094769Y0056126D01*
X0094716Y0057948D02*
X0096222Y0058572D01*
X0097376Y0059726D01*
X0098000Y0061232D01*
X0098000Y0062864D01*
X0097376Y0064370D01*
X0096222Y0065524D01*
X0094716Y0066148D01*
X0087884Y0066148D01*
X0086378Y0065524D01*
X0085224Y0064370D01*
X0084600Y0062864D01*
X0084600Y0061232D01*
X0085224Y0059726D01*
X0086378Y0058572D01*
X0087884Y0057948D01*
X0094716Y0057948D01*
X0096096Y0058520D02*
X0116504Y0058520D01*
X0116378Y0058572D02*
X0117884Y0057948D01*
X0124716Y0057948D01*
X0126222Y0058572D01*
X0127376Y0059726D01*
X0128000Y0061232D01*
X0128000Y0062864D01*
X0127376Y0064370D01*
X0126222Y0065524D01*
X0124716Y0066148D01*
X0117884Y0066148D01*
X0116378Y0065524D01*
X0115224Y0064370D01*
X0114600Y0062864D01*
X0114600Y0061232D01*
X0115224Y0059726D01*
X0116378Y0058572D01*
X0115831Y0059119D02*
X0096769Y0059119D01*
X0097367Y0059717D02*
X0115233Y0059717D01*
X0114980Y0060316D02*
X0097620Y0060316D01*
X0097868Y0060914D02*
X0114732Y0060914D01*
X0114600Y0061513D02*
X0098000Y0061513D01*
X0098000Y0062111D02*
X0114600Y0062111D01*
X0114600Y0062710D02*
X0098000Y0062710D01*
X0097816Y0063308D02*
X0114784Y0063308D01*
X0115032Y0063907D02*
X0097568Y0063907D01*
X0097241Y0064505D02*
X0115359Y0064505D01*
X0115957Y0065104D02*
X0096643Y0065104D01*
X0095792Y0065702D02*
X0116808Y0065702D01*
X0117562Y0068298D02*
X0118316Y0068148D01*
X0121000Y0068148D01*
X0121000Y0071748D01*
X0121600Y0071748D01*
X0121600Y0068148D01*
X0124284Y0068148D01*
X0125038Y0068298D01*
X0125747Y0068592D01*
X0126386Y0069019D01*
X0126929Y0069562D01*
X0127356Y0070201D01*
X0127650Y0070910D01*
X0127800Y0071664D01*
X0127800Y0071748D01*
X0121600Y0071748D01*
X0121600Y0072348D01*
X0127800Y0072348D01*
X0127800Y0072432D01*
X0127650Y0073186D01*
X0127356Y0073895D01*
X0126929Y0074534D01*
X0126386Y0075077D01*
X0125747Y0075504D01*
X0125038Y0075798D01*
X0124284Y0075948D01*
X0121600Y0075948D01*
X0121600Y0072348D01*
X0121000Y0072348D01*
X0121000Y0071748D01*
X0114800Y0071748D01*
X0114800Y0071664D01*
X0114950Y0070910D01*
X0115244Y0070201D01*
X0115671Y0069562D01*
X0116214Y0069019D01*
X0116853Y0068592D01*
X0117562Y0068298D01*
X0116699Y0068695D02*
X0096345Y0068695D01*
X0096222Y0068572D02*
X0097376Y0069726D01*
X0098000Y0071232D01*
X0098000Y0072864D01*
X0097376Y0074370D01*
X0096222Y0075524D01*
X0094716Y0076148D01*
X0087884Y0076148D01*
X0086378Y0075524D01*
X0085224Y0074370D01*
X0084600Y0072864D01*
X0084600Y0071232D01*
X0085224Y0069726D01*
X0086378Y0068572D01*
X0087884Y0067948D01*
X0094716Y0067948D01*
X0096222Y0068572D01*
X0096943Y0069293D02*
X0115939Y0069293D01*
X0115450Y0069892D02*
X0097445Y0069892D01*
X0097693Y0070490D02*
X0115124Y0070490D01*
X0114914Y0071089D02*
X0097940Y0071089D01*
X0098000Y0071687D02*
X0114800Y0071687D01*
X0114800Y0072348D02*
X0121000Y0072348D01*
X0121000Y0075948D01*
X0118316Y0075948D01*
X0117562Y0075798D01*
X0116853Y0075504D01*
X0116214Y0075077D01*
X0115671Y0074534D01*
X0115244Y0073895D01*
X0114950Y0073186D01*
X0114800Y0072432D01*
X0114800Y0072348D01*
X0114890Y0072884D02*
X0097991Y0072884D01*
X0098000Y0072286D02*
X0121000Y0072286D01*
X0121000Y0072884D02*
X0121600Y0072884D01*
X0121600Y0072286D02*
X0169000Y0072286D01*
X0169000Y0072884D02*
X0127710Y0072884D01*
X0127527Y0073483D02*
X0169000Y0073483D01*
X0169000Y0074081D02*
X0127232Y0074081D01*
X0126784Y0074680D02*
X0169000Y0074680D01*
X0169000Y0075278D02*
X0126085Y0075278D01*
X0124642Y0075877D02*
X0169000Y0075877D01*
X0169000Y0076475D02*
X0081272Y0076475D01*
X0081300Y0076655D02*
X0081300Y0076748D01*
X0076600Y0076748D01*
X0076600Y0077348D01*
X0081300Y0077348D01*
X0081300Y0077442D01*
X0081177Y0078219D01*
X0080934Y0078967D01*
X0080576Y0079669D01*
X0080114Y0080305D01*
X0079557Y0080862D01*
X0078921Y0081324D01*
X0078219Y0081682D01*
X0077498Y0081916D01*
X0079246Y0082640D01*
X0080708Y0084102D01*
X0081500Y0086014D01*
X0081500Y0088082D01*
X0080708Y0089994D01*
X0079246Y0091456D01*
X0077334Y0092248D01*
X0075266Y0092248D01*
X0073354Y0091456D01*
X0071892Y0089994D01*
X0071100Y0088082D01*
X0071100Y0086014D01*
X0071892Y0084102D01*
X0073354Y0082640D01*
X0075102Y0081916D01*
X0074381Y0081682D01*
X0073679Y0081324D01*
X0073043Y0080862D01*
X0072486Y0080305D01*
X0072024Y0079669D01*
X0071666Y0078967D01*
X0071423Y0078219D01*
X0071300Y0077442D01*
X0071300Y0077348D01*
X0076000Y0077348D01*
X0076000Y0076748D01*
X0071300Y0076748D01*
X0071300Y0076655D01*
X0071423Y0075877D01*
X0071666Y0075129D01*
X0072024Y0074427D01*
X0072486Y0073791D01*
X0073043Y0073234D01*
X0073679Y0072772D01*
X0074381Y0072414D01*
X0075102Y0072180D01*
X0073354Y0071456D01*
X0071892Y0069994D01*
X0071100Y0068082D01*
X0071100Y0066014D01*
X0071892Y0064102D01*
X0073354Y0062640D01*
X0075266Y0061848D01*
X0077334Y0061848D01*
X0079246Y0062640D01*
X0080708Y0064102D01*
X0081500Y0066014D01*
X0081500Y0068082D01*
X0080708Y0069994D01*
X0079246Y0071456D01*
X0077498Y0072180D01*
X0078219Y0072414D01*
X0078921Y0072772D01*
X0079557Y0073234D01*
X0080114Y0073791D01*
X0080576Y0074427D01*
X0080934Y0075129D01*
X0081177Y0075877D01*
X0081300Y0076655D01*
X0081177Y0075877D02*
X0087230Y0075877D01*
X0086132Y0075278D02*
X0080982Y0075278D01*
X0080705Y0074680D02*
X0085534Y0074680D01*
X0085104Y0074081D02*
X0080325Y0074081D01*
X0079806Y0073483D02*
X0084856Y0073483D01*
X0084609Y0072884D02*
X0079076Y0072884D01*
X0078688Y0071687D02*
X0084600Y0071687D01*
X0084600Y0072286D02*
X0077824Y0072286D01*
X0079613Y0071089D02*
X0084660Y0071089D01*
X0084907Y0070490D02*
X0080212Y0070490D01*
X0080751Y0069892D02*
X0085155Y0069892D01*
X0085657Y0069293D02*
X0080998Y0069293D01*
X0081246Y0068695D02*
X0086255Y0068695D01*
X0087527Y0068096D02*
X0081494Y0068096D01*
X0081500Y0067498D02*
X0169000Y0067498D01*
X0169000Y0068096D02*
X0095073Y0068096D01*
X0097744Y0073483D02*
X0115073Y0073483D01*
X0115368Y0074081D02*
X0097496Y0074081D01*
X0097066Y0074680D02*
X0115816Y0074680D01*
X0116515Y0075278D02*
X0096468Y0075278D01*
X0095370Y0075877D02*
X0117958Y0075877D01*
X0117884Y0077948D02*
X0124716Y0077948D01*
X0126222Y0078572D01*
X0127376Y0079726D01*
X0128000Y0081232D01*
X0128000Y0082864D01*
X0127376Y0084370D01*
X0126222Y0085524D01*
X0124716Y0086148D01*
X0117884Y0086148D01*
X0116378Y0085524D01*
X0115224Y0084370D01*
X0114600Y0082864D01*
X0114600Y0081232D01*
X0115224Y0079726D01*
X0116378Y0078572D01*
X0117884Y0077948D01*
X0117105Y0078271D02*
X0095495Y0078271D01*
X0096222Y0078572D02*
X0097376Y0079726D01*
X0098000Y0081232D01*
X0098000Y0082864D01*
X0097376Y0084370D01*
X0096222Y0085524D01*
X0094716Y0086148D01*
X0087884Y0086148D01*
X0086378Y0085524D01*
X0085224Y0084370D01*
X0084600Y0082864D01*
X0084600Y0081232D01*
X0085224Y0079726D01*
X0086378Y0078572D01*
X0087884Y0077948D01*
X0094716Y0077948D01*
X0096222Y0078572D01*
X0096520Y0078869D02*
X0116080Y0078869D01*
X0115482Y0079468D02*
X0097118Y0079468D01*
X0097517Y0080066D02*
X0115083Y0080066D01*
X0114835Y0080665D02*
X0097765Y0080665D01*
X0098000Y0081263D02*
X0114600Y0081263D01*
X0114600Y0081862D02*
X0098000Y0081862D01*
X0098000Y0082460D02*
X0114600Y0082460D01*
X0114681Y0083059D02*
X0097919Y0083059D01*
X0097671Y0083657D02*
X0114929Y0083657D01*
X0115177Y0084256D02*
X0097423Y0084256D01*
X0096892Y0084855D02*
X0115708Y0084855D01*
X0116307Y0085453D02*
X0096293Y0085453D01*
X0094948Y0086052D02*
X0117652Y0086052D01*
X0117884Y0087948D02*
X0124716Y0087948D01*
X0126222Y0088572D01*
X0127376Y0089726D01*
X0127385Y0089748D01*
X0160347Y0089748D01*
X0169000Y0081095D01*
X0169000Y0048692D01*
X0168936Y0048628D01*
X0168511Y0047603D01*
X0168511Y0046493D01*
X0168936Y0045468D01*
X0169720Y0044684D01*
X0170745Y0044259D01*
X0171855Y0044259D01*
X0172880Y0044684D01*
X0173664Y0045468D01*
X0173800Y0045796D01*
X0173936Y0045468D01*
X0174720Y0044684D01*
X0175745Y0044259D01*
X0176855Y0044259D01*
X0177880Y0044684D01*
X0178664Y0045468D01*
X0179089Y0046493D01*
X0179089Y0047603D01*
X0178664Y0048628D01*
X0178600Y0048692D01*
X0178600Y0093001D01*
X0168600Y0103001D01*
X0167253Y0104348D01*
X0127385Y0104348D01*
X0127376Y0104370D01*
X0126222Y0105524D01*
X0124716Y0106148D01*
X0117884Y0106148D01*
X0116378Y0105524D01*
X0115224Y0104370D01*
X0114600Y0102864D01*
X0114600Y0101232D01*
X0115224Y0099726D01*
X0116378Y0098572D01*
X0117884Y0097948D01*
X0124716Y0097948D01*
X0126222Y0098572D01*
X0127376Y0099726D01*
X0127385Y0099748D01*
X0165347Y0099748D01*
X0174000Y0091095D01*
X0174000Y0048692D01*
X0173936Y0048628D01*
X0173800Y0048300D01*
X0173664Y0048628D01*
X0173600Y0048692D01*
X0173600Y0083001D01*
X0163600Y0093001D01*
X0162253Y0094348D01*
X0127385Y0094348D01*
X0127376Y0094370D01*
X0126222Y0095524D01*
X0124716Y0096148D01*
X0117884Y0096148D01*
X0116378Y0095524D01*
X0115224Y0094370D01*
X0114600Y0092864D01*
X0114600Y0091232D01*
X0115224Y0089726D01*
X0116378Y0088572D01*
X0117884Y0087948D01*
X0116683Y0088446D02*
X0095394Y0088446D01*
X0095747Y0088592D02*
X0096386Y0089019D01*
X0096929Y0089562D01*
X0097356Y0090201D01*
X0097650Y0090910D01*
X0097800Y0091664D01*
X0097800Y0091748D01*
X0091600Y0091748D01*
X0091600Y0088148D01*
X0094284Y0088148D01*
X0095038Y0088298D01*
X0095747Y0088592D01*
X0096411Y0089044D02*
X0115906Y0089044D01*
X0115307Y0089643D02*
X0096983Y0089643D01*
X0097373Y0090241D02*
X0115011Y0090241D01*
X0114763Y0090840D02*
X0097621Y0090840D01*
X0097755Y0091438D02*
X0114600Y0091438D01*
X0114600Y0092037D02*
X0091600Y0092037D01*
X0091600Y0091748D02*
X0091600Y0092348D01*
X0097800Y0092348D01*
X0097800Y0092432D01*
X0097650Y0093186D01*
X0097356Y0093895D01*
X0096929Y0094534D01*
X0096386Y0095077D01*
X0095747Y0095504D01*
X0095038Y0095798D01*
X0094284Y0095948D01*
X0091600Y0095948D01*
X0091600Y0092348D01*
X0091000Y0092348D01*
X0091000Y0091748D01*
X0091600Y0091748D01*
X0091600Y0091438D02*
X0091000Y0091438D01*
X0091000Y0091748D02*
X0091000Y0088148D01*
X0088316Y0088148D01*
X0087562Y0088298D01*
X0086853Y0088592D01*
X0086214Y0089019D01*
X0085671Y0089562D01*
X0085244Y0090201D01*
X0084950Y0090910D01*
X0084800Y0091664D01*
X0084800Y0091748D01*
X0091000Y0091748D01*
X0091000Y0092037D02*
X0077845Y0092037D01*
X0079264Y0091438D02*
X0084845Y0091438D01*
X0084979Y0090840D02*
X0079862Y0090840D01*
X0080461Y0090241D02*
X0085227Y0090241D01*
X0085617Y0089643D02*
X0080854Y0089643D01*
X0081102Y0089044D02*
X0086189Y0089044D01*
X0087206Y0088446D02*
X0081350Y0088446D01*
X0081500Y0087847D02*
X0162248Y0087847D01*
X0161650Y0088446D02*
X0125917Y0088446D01*
X0126694Y0089044D02*
X0161051Y0089044D01*
X0160453Y0089643D02*
X0127293Y0089643D01*
X0124948Y0086052D02*
X0164044Y0086052D01*
X0163445Y0086650D02*
X0081500Y0086650D01*
X0081500Y0086052D02*
X0087652Y0086052D01*
X0086307Y0085453D02*
X0081268Y0085453D01*
X0081020Y0084855D02*
X0085708Y0084855D01*
X0085177Y0084256D02*
X0080772Y0084256D01*
X0080263Y0083657D02*
X0084929Y0083657D01*
X0084681Y0083059D02*
X0079665Y0083059D01*
X0078813Y0082460D02*
X0084600Y0082460D01*
X0084600Y0081862D02*
X0077665Y0081862D01*
X0079005Y0081263D02*
X0084600Y0081263D01*
X0084835Y0080665D02*
X0079754Y0080665D01*
X0080287Y0080066D02*
X0085083Y0080066D01*
X0085482Y0079468D02*
X0080679Y0079468D01*
X0080966Y0078869D02*
X0086080Y0078869D01*
X0087105Y0078271D02*
X0081160Y0078271D01*
X0081263Y0077672D02*
X0133943Y0077672D01*
X0134484Y0077448D02*
X0136116Y0077448D01*
X0137622Y0078072D01*
X0138776Y0079226D01*
X0139400Y0080732D01*
X0139400Y0082364D01*
X0138776Y0083870D01*
X0137622Y0085024D01*
X0136116Y0085648D01*
X0134484Y0085648D01*
X0132978Y0085024D01*
X0131824Y0083870D01*
X0131200Y0082364D01*
X0131200Y0080732D01*
X0131824Y0079226D01*
X0132978Y0078072D01*
X0134484Y0077448D01*
X0132779Y0078271D02*
X0125495Y0078271D01*
X0126520Y0078869D02*
X0132180Y0078869D01*
X0131724Y0079468D02*
X0127118Y0079468D01*
X0127517Y0080066D02*
X0131476Y0080066D01*
X0131228Y0080665D02*
X0127765Y0080665D01*
X0128000Y0081263D02*
X0131200Y0081263D01*
X0131200Y0081862D02*
X0128000Y0081862D01*
X0128000Y0082460D02*
X0131240Y0082460D01*
X0131488Y0083059D02*
X0127919Y0083059D01*
X0127671Y0083657D02*
X0131736Y0083657D01*
X0132210Y0084256D02*
X0127423Y0084256D01*
X0126892Y0084855D02*
X0132808Y0084855D01*
X0134014Y0085453D02*
X0126293Y0085453D01*
X0127316Y0094431D02*
X0170665Y0094431D01*
X0171263Y0093832D02*
X0162769Y0093832D01*
X0163367Y0093234D02*
X0171862Y0093234D01*
X0172460Y0092635D02*
X0163966Y0092635D01*
X0164564Y0092037D02*
X0173059Y0092037D01*
X0173657Y0091438D02*
X0165163Y0091438D01*
X0165761Y0090840D02*
X0174000Y0090840D01*
X0174000Y0090241D02*
X0166360Y0090241D01*
X0166958Y0089643D02*
X0174000Y0089643D01*
X0174000Y0089044D02*
X0167557Y0089044D01*
X0168155Y0088446D02*
X0174000Y0088446D01*
X0174000Y0087847D02*
X0168754Y0087847D01*
X0169352Y0087249D02*
X0174000Y0087249D01*
X0174000Y0086650D02*
X0169951Y0086650D01*
X0170549Y0086052D02*
X0174000Y0086052D01*
X0174000Y0085453D02*
X0171148Y0085453D01*
X0171746Y0084855D02*
X0174000Y0084855D01*
X0174000Y0084256D02*
X0172345Y0084256D01*
X0172943Y0083657D02*
X0174000Y0083657D01*
X0174000Y0083059D02*
X0173542Y0083059D01*
X0173600Y0082460D02*
X0174000Y0082460D01*
X0174000Y0081862D02*
X0173600Y0081862D01*
X0173600Y0081263D02*
X0174000Y0081263D01*
X0174000Y0080665D02*
X0173600Y0080665D01*
X0173600Y0080066D02*
X0174000Y0080066D01*
X0174000Y0079468D02*
X0173600Y0079468D01*
X0173600Y0078869D02*
X0174000Y0078869D01*
X0174000Y0078271D02*
X0173600Y0078271D01*
X0173600Y0077672D02*
X0174000Y0077672D01*
X0174000Y0077074D02*
X0173600Y0077074D01*
X0173600Y0076475D02*
X0174000Y0076475D01*
X0174000Y0075877D02*
X0173600Y0075877D01*
X0173600Y0075278D02*
X0174000Y0075278D01*
X0174000Y0074680D02*
X0173600Y0074680D01*
X0173600Y0074081D02*
X0174000Y0074081D01*
X0174000Y0073483D02*
X0173600Y0073483D01*
X0173600Y0072884D02*
X0174000Y0072884D01*
X0174000Y0072286D02*
X0173600Y0072286D01*
X0173600Y0071687D02*
X0174000Y0071687D01*
X0174000Y0071089D02*
X0173600Y0071089D01*
X0173600Y0070490D02*
X0174000Y0070490D01*
X0174000Y0069892D02*
X0173600Y0069892D01*
X0173600Y0069293D02*
X0174000Y0069293D01*
X0174000Y0068695D02*
X0173600Y0068695D01*
X0173600Y0068096D02*
X0174000Y0068096D01*
X0174000Y0067498D02*
X0173600Y0067498D01*
X0173600Y0066899D02*
X0174000Y0066899D01*
X0174000Y0066301D02*
X0173600Y0066301D01*
X0173600Y0065702D02*
X0174000Y0065702D01*
X0174000Y0065104D02*
X0173600Y0065104D01*
X0173600Y0064505D02*
X0174000Y0064505D01*
X0174000Y0063907D02*
X0173600Y0063907D01*
X0173600Y0063308D02*
X0174000Y0063308D01*
X0174000Y0062710D02*
X0173600Y0062710D01*
X0173600Y0062111D02*
X0174000Y0062111D01*
X0174000Y0061513D02*
X0173600Y0061513D01*
X0173600Y0060914D02*
X0174000Y0060914D01*
X0174000Y0060316D02*
X0173600Y0060316D01*
X0173600Y0059717D02*
X0174000Y0059717D01*
X0174000Y0059119D02*
X0173600Y0059119D01*
X0173600Y0058520D02*
X0174000Y0058520D01*
X0174000Y0057921D02*
X0173600Y0057921D01*
X0173600Y0057323D02*
X0174000Y0057323D01*
X0174000Y0056724D02*
X0173600Y0056724D01*
X0173600Y0056126D02*
X0174000Y0056126D01*
X0174000Y0055527D02*
X0173600Y0055527D01*
X0173600Y0054929D02*
X0174000Y0054929D01*
X0174000Y0054330D02*
X0173600Y0054330D01*
X0173600Y0053732D02*
X0174000Y0053732D01*
X0174000Y0053133D02*
X0173600Y0053133D01*
X0173600Y0052535D02*
X0174000Y0052535D01*
X0174000Y0051936D02*
X0173600Y0051936D01*
X0173600Y0051338D02*
X0174000Y0051338D01*
X0174000Y0050739D02*
X0173600Y0050739D01*
X0173600Y0050141D02*
X0174000Y0050141D01*
X0174000Y0049542D02*
X0173600Y0049542D01*
X0173600Y0048944D02*
X0174000Y0048944D01*
X0173819Y0048345D02*
X0173781Y0048345D01*
X0173549Y0045353D02*
X0174051Y0045353D01*
X0174650Y0044754D02*
X0172950Y0044754D01*
X0169650Y0044754D02*
X0126992Y0044754D01*
X0127465Y0044156D02*
X0180190Y0044156D01*
X0180190Y0044754D02*
X0177950Y0044754D01*
X0178549Y0045353D02*
X0180190Y0045353D01*
X0180239Y0045951D02*
X0178864Y0045951D01*
X0179089Y0046550D02*
X0180487Y0046550D01*
X0180735Y0047148D02*
X0179089Y0047148D01*
X0179029Y0047747D02*
X0180983Y0047747D01*
X0181231Y0048345D02*
X0178781Y0048345D01*
X0178600Y0048944D02*
X0181770Y0048944D01*
X0182369Y0049542D02*
X0178600Y0049542D01*
X0178600Y0050141D02*
X0182967Y0050141D01*
X0183981Y0050739D02*
X0178600Y0050739D01*
X0178600Y0051338D02*
X0185426Y0051338D01*
X0189174Y0051338D02*
X0201650Y0051338D01*
X0201650Y0051936D02*
X0178600Y0051936D01*
X0178600Y0052535D02*
X0201650Y0052535D01*
X0201650Y0053133D02*
X0178600Y0053133D01*
X0178600Y0053732D02*
X0201650Y0053732D01*
X0201650Y0054330D02*
X0178600Y0054330D01*
X0178600Y0054929D02*
X0201650Y0054929D01*
X0201650Y0055527D02*
X0178600Y0055527D01*
X0178600Y0056126D02*
X0201650Y0056126D01*
X0201650Y0056724D02*
X0178600Y0056724D01*
X0178600Y0057323D02*
X0201650Y0057323D01*
X0201650Y0057921D02*
X0178600Y0057921D01*
X0178600Y0058520D02*
X0201650Y0058520D01*
X0201650Y0059119D02*
X0178600Y0059119D01*
X0178600Y0059717D02*
X0201650Y0059717D01*
X0201650Y0060316D02*
X0178600Y0060316D01*
X0178600Y0060914D02*
X0201650Y0060914D01*
X0201650Y0061513D02*
X0178600Y0061513D01*
X0178600Y0062111D02*
X0201650Y0062111D01*
X0201650Y0062710D02*
X0178600Y0062710D01*
X0178600Y0063308D02*
X0201650Y0063308D01*
X0201650Y0063907D02*
X0178600Y0063907D01*
X0178600Y0064505D02*
X0201650Y0064505D01*
X0201650Y0065104D02*
X0178600Y0065104D01*
X0178600Y0065702D02*
X0201650Y0065702D01*
X0201650Y0066301D02*
X0178600Y0066301D01*
X0178600Y0066899D02*
X0201650Y0066899D01*
X0201650Y0067498D02*
X0200883Y0067498D01*
X0200719Y0067414D02*
X0201421Y0067772D01*
X0201650Y0067939D01*
X0201650Y0008548D01*
X0007800Y0008548D01*
X0007800Y0068477D01*
X0008043Y0068234D01*
X0008679Y0067772D01*
X0009381Y0067414D01*
X0010129Y0067171D01*
X0010906Y0067048D01*
X0011000Y0067048D01*
X0011000Y0071748D01*
X0011600Y0071748D01*
X0011600Y0067048D01*
X0011694Y0067048D01*
X0012471Y0067171D01*
X0013219Y0067414D01*
X0013921Y0067772D01*
X0014557Y0068234D01*
X0015114Y0068791D01*
X0015576Y0069427D01*
X0015934Y0070129D01*
X0016177Y0070877D01*
X0016300Y0071655D01*
X0016300Y0071748D01*
X0011600Y0071748D01*
X0011600Y0072348D01*
X0016300Y0072348D01*
X0016300Y0072442D01*
X0016177Y0073219D01*
X0015934Y0073967D01*
X0015576Y0074669D01*
X0015114Y0075305D01*
X0014557Y0075862D01*
X0013921Y0076324D01*
X0013219Y0076682D01*
X0012498Y0076916D01*
X0014246Y0077640D01*
X0015708Y0079102D01*
X0016500Y0081014D01*
X0016500Y0083082D01*
X0015708Y0084994D01*
X0014246Y0086456D01*
X0012817Y0087048D01*
X0014246Y0087640D01*
X0015708Y0089102D01*
X0016500Y0091014D01*
X0016500Y0093082D01*
X0015708Y0094994D01*
X0014246Y0096456D01*
X0012817Y0097048D01*
X0014246Y0097640D01*
X0015708Y0099102D01*
X0016500Y0101014D01*
X0058709Y0101014D01*
X0058511Y0101493D02*
X0058936Y0100468D01*
X0059720Y0099684D01*
X0060745Y0099259D01*
X0061855Y0099259D01*
X0062880Y0099684D01*
X0063664Y0100468D01*
X0064000Y0101278D01*
X0064000Y0088001D01*
X0055347Y0079348D01*
X0052944Y0079348D01*
X0052880Y0079412D01*
X0051855Y0079837D01*
X0050745Y0079837D01*
X0049720Y0079412D01*
X0048936Y0078628D01*
X0048511Y0077603D01*
X0048511Y0076493D01*
X0048936Y0075468D01*
X0049720Y0074684D01*
X0050745Y0074259D01*
X0051855Y0074259D01*
X0052880Y0074684D01*
X0052944Y0074748D01*
X0057253Y0074748D01*
X0058600Y0076095D01*
X0068600Y0086095D01*
X0068600Y0178001D01*
X0067253Y0179348D01*
X0055400Y0191201D01*
X0055400Y0193746D01*
X0052998Y0196148D01*
X0049602Y0196148D01*
X0047200Y0193746D01*
X0047200Y0190350D01*
X0049602Y0187948D01*
X0052147Y0187948D01*
X0064000Y0176095D01*
X0064000Y0102818D01*
X0063664Y0103628D01*
X0062880Y0104412D01*
X0061855Y0104837D01*
X0061764Y0104837D01*
X0053600Y0113001D01*
X0053600Y0169001D01*
X0052253Y0170348D01*
X0049400Y0173201D01*
X0049400Y0175746D01*
X0046998Y0178148D01*
X0043602Y0178148D01*
X0041200Y0175746D01*
X0041200Y0172350D01*
X0043602Y0169948D01*
X0046147Y0169948D01*
X0049000Y0167095D01*
X0049000Y0111095D01*
X0058511Y0101584D01*
X0058511Y0101493D01*
X0058483Y0101613D02*
X0016500Y0101613D01*
X0016500Y0102211D02*
X0057884Y0102211D01*
X0057285Y0102810D02*
X0016500Y0102810D01*
X0016500Y0103082D02*
X0015708Y0104994D01*
X0014246Y0106456D01*
X0012817Y0107048D01*
X0014246Y0107640D01*
X0015708Y0109102D01*
X0016500Y0111014D01*
X0016500Y0113082D01*
X0015708Y0114994D01*
X0014246Y0116456D01*
X0012817Y0117048D01*
X0014246Y0117640D01*
X0015708Y0119102D01*
X0016500Y0121014D01*
X0016500Y0123082D01*
X0015708Y0124994D01*
X0014246Y0126456D01*
X0012817Y0127048D01*
X0014246Y0127640D01*
X0015708Y0129102D01*
X0016500Y0131014D01*
X0016500Y0133082D01*
X0015708Y0134994D01*
X0014246Y0136456D01*
X0012817Y0137048D01*
X0014246Y0137640D01*
X0015708Y0139102D01*
X0016500Y0141014D01*
X0016500Y0143082D01*
X0015708Y0144994D01*
X0014246Y0146456D01*
X0012334Y0147248D01*
X0010266Y0147248D01*
X0008354Y0146456D01*
X0007800Y0145902D01*
X0007800Y0202398D01*
X0201650Y0202398D01*
X0201650Y0196496D01*
X0199834Y0197248D01*
X0197766Y0197248D01*
X0195854Y0196456D01*
X0194392Y0194994D01*
X0193600Y0193082D01*
X0193600Y0191014D01*
X0194392Y0189102D01*
X0195854Y0187640D01*
X0197283Y0187048D01*
X0195854Y0186456D01*
X0194392Y0184994D01*
X0193917Y0183848D01*
X0154753Y0183848D01*
X0147753Y0190848D01*
X0128310Y0190848D01*
X0127369Y0190857D01*
X0127360Y0190848D01*
X0127315Y0190848D01*
X0125967Y0189501D01*
X0124913Y0188446D01*
X0124240Y0187786D01*
X0100360Y0164348D01*
X0100347Y0164348D01*
X0099681Y0163682D01*
X0099009Y0163022D01*
X0099009Y0163010D01*
X0099000Y0163001D01*
X0099000Y0162058D01*
X0098991Y0161117D01*
X0099000Y0161108D01*
X0099000Y0138001D01*
X0096373Y0135373D01*
X0096222Y0135524D01*
X0094716Y0136148D01*
X0087884Y0136148D01*
X0086378Y0135524D01*
X0085224Y0134370D01*
X0084600Y0132864D01*
X0084600Y0131232D01*
X0085224Y0129726D01*
X0086378Y0128572D01*
X0087884Y0127948D01*
X0094716Y0127948D01*
X0096222Y0128572D01*
X0097376Y0129726D01*
X0097479Y0129974D01*
X0102253Y0134748D01*
X0103600Y0136095D01*
X0103600Y0161083D01*
X0127472Y0184512D01*
X0127484Y0184512D01*
X0128150Y0185178D01*
X0128822Y0185838D01*
X0129240Y0186248D01*
X0145847Y0186248D01*
X0151500Y0180595D01*
X0152847Y0179248D01*
X0194331Y0179248D01*
X0194392Y0179102D01*
X0195854Y0177640D01*
X0197602Y0176916D01*
X0196881Y0176682D01*
X0196179Y0176324D01*
X0195543Y0175862D01*
X0194986Y0175305D01*
X0194524Y0174669D01*
X0194166Y0173967D01*
X0193923Y0173219D01*
X0193800Y0172442D01*
X0193800Y0172348D01*
X0198500Y0172348D01*
X0198500Y0171748D01*
X0193800Y0171748D01*
X0193800Y0171655D01*
X0193923Y0170877D01*
X0194166Y0170129D01*
X0194524Y0169427D01*
X0194986Y0168791D01*
X0195543Y0168234D01*
X0196179Y0167772D01*
X0196881Y0167414D01*
X0197602Y0167180D01*
X0195854Y0166456D01*
X0194392Y0164994D01*
X0193600Y0163082D01*
X0193600Y0161014D01*
X0194392Y0159102D01*
X0195854Y0157640D01*
X0197283Y0157048D01*
X0195854Y0156456D01*
X0194392Y0154994D01*
X0193600Y0153082D01*
X0193600Y0151014D01*
X0194392Y0149102D01*
X0195854Y0147640D01*
X0197283Y0147048D01*
X0195854Y0146456D01*
X0194392Y0144994D01*
X0193600Y0143082D01*
X0193600Y0141014D01*
X0194392Y0139102D01*
X0195854Y0137640D01*
X0197283Y0137048D01*
X0195854Y0136456D01*
X0194392Y0134994D01*
X0193600Y0133082D01*
X0193600Y0131014D01*
X0194392Y0129102D01*
X0195854Y0127640D01*
X0197283Y0127048D01*
X0195854Y0126456D01*
X0194392Y0124994D01*
X0193600Y0123082D01*
X0193600Y0121014D01*
X0194392Y0119102D01*
X0195854Y0117640D01*
X0197283Y0117048D01*
X0195854Y0116456D01*
X0194392Y0114994D01*
X0193600Y0113082D01*
X0193600Y0111014D01*
X0194392Y0109102D01*
X0195854Y0107640D01*
X0197283Y0107048D01*
X0195854Y0106456D01*
X0194392Y0104994D01*
X0193600Y0103082D01*
X0193600Y0101014D01*
X0170586Y0101014D01*
X0169988Y0101613D02*
X0193600Y0101613D01*
X0193600Y0102211D02*
X0169389Y0102211D01*
X0168791Y0102810D02*
X0193600Y0102810D01*
X0193735Y0103408D02*
X0168192Y0103408D01*
X0168600Y0103001D02*
X0168600Y0103001D01*
X0167594Y0104007D02*
X0193983Y0104007D01*
X0194231Y0104605D02*
X0127141Y0104605D01*
X0126542Y0105204D02*
X0194602Y0105204D01*
X0195200Y0105802D02*
X0125550Y0105802D01*
X0124716Y0107948D02*
X0126222Y0108572D01*
X0127376Y0109726D01*
X0128000Y0111232D01*
X0128000Y0112864D01*
X0127376Y0114370D01*
X0126222Y0115524D01*
X0124716Y0116148D01*
X0117884Y0116148D01*
X0116378Y0115524D01*
X0115224Y0114370D01*
X0114600Y0112864D01*
X0114600Y0111232D01*
X0115224Y0109726D01*
X0116378Y0108572D01*
X0117884Y0107948D01*
X0124716Y0107948D01*
X0125315Y0108196D02*
X0195298Y0108196D01*
X0194699Y0108795D02*
X0126445Y0108795D01*
X0127044Y0109393D02*
X0194271Y0109393D01*
X0194023Y0109992D02*
X0127486Y0109992D01*
X0127734Y0110590D02*
X0193775Y0110590D01*
X0193600Y0111189D02*
X0127982Y0111189D01*
X0128000Y0111788D02*
X0193600Y0111788D01*
X0193600Y0112386D02*
X0128000Y0112386D01*
X0127950Y0112985D02*
X0193600Y0112985D01*
X0193807Y0113583D02*
X0127702Y0113583D01*
X0127454Y0114182D02*
X0194055Y0114182D01*
X0194303Y0114780D02*
X0126966Y0114780D01*
X0126368Y0115379D02*
X0194777Y0115379D01*
X0195375Y0115977D02*
X0125128Y0115977D01*
X0124716Y0117948D02*
X0126222Y0118572D01*
X0127376Y0119726D01*
X0128000Y0121232D01*
X0128000Y0122864D01*
X0127376Y0124370D01*
X0126222Y0125524D01*
X0124716Y0126148D01*
X0117884Y0126148D01*
X0116378Y0125524D01*
X0115224Y0124370D01*
X0114600Y0122864D01*
X0114600Y0121232D01*
X0115224Y0119726D01*
X0116378Y0118572D01*
X0117884Y0117948D01*
X0124716Y0117948D01*
X0125737Y0118371D02*
X0195123Y0118371D01*
X0195721Y0117773D02*
X0068600Y0117773D01*
X0068600Y0118371D02*
X0086863Y0118371D01*
X0086378Y0118572D02*
X0087884Y0117948D01*
X0094716Y0117948D01*
X0096222Y0118572D01*
X0097376Y0119726D01*
X0097479Y0119974D01*
X0112253Y0134748D01*
X0113600Y0136095D01*
X0113600Y0164095D01*
X0123253Y0173748D01*
X0125656Y0173748D01*
X0125720Y0173684D01*
X0126745Y0173259D01*
X0127855Y0173259D01*
X0128880Y0173684D01*
X0129664Y0174468D01*
X0130089Y0175493D01*
X0130089Y0176603D01*
X0129664Y0177628D01*
X0128880Y0178412D01*
X0127855Y0178837D01*
X0126745Y0178837D01*
X0125720Y0178412D01*
X0125656Y0178348D01*
X0121347Y0178348D01*
X0120000Y0177001D01*
X0110347Y0167348D01*
X0109000Y0166001D01*
X0109000Y0138001D01*
X0096373Y0125373D01*
X0096222Y0125524D01*
X0094716Y0126148D01*
X0087884Y0126148D01*
X0086378Y0125524D01*
X0085224Y0124370D01*
X0084600Y0122864D01*
X0084600Y0121232D01*
X0085224Y0119726D01*
X0086378Y0118572D01*
X0085980Y0118970D02*
X0068600Y0118970D01*
X0068600Y0119568D02*
X0085382Y0119568D01*
X0085041Y0120167D02*
X0068600Y0120167D01*
X0068600Y0120765D02*
X0084794Y0120765D01*
X0084600Y0121364D02*
X0068600Y0121364D01*
X0068600Y0121962D02*
X0084600Y0121962D01*
X0084600Y0122561D02*
X0068600Y0122561D01*
X0068600Y0123159D02*
X0084722Y0123159D01*
X0084970Y0123758D02*
X0068600Y0123758D01*
X0068600Y0124356D02*
X0085218Y0124356D01*
X0085808Y0124955D02*
X0068600Y0124955D01*
X0068600Y0125553D02*
X0086449Y0125553D01*
X0086441Y0128546D02*
X0068600Y0128546D01*
X0068600Y0129144D02*
X0085805Y0129144D01*
X0085217Y0129743D02*
X0068600Y0129743D01*
X0068600Y0130341D02*
X0084969Y0130341D01*
X0084721Y0130940D02*
X0068600Y0130940D01*
X0068600Y0131538D02*
X0084600Y0131538D01*
X0084600Y0132137D02*
X0068600Y0132137D01*
X0068600Y0132735D02*
X0084600Y0132735D01*
X0084795Y0133334D02*
X0068600Y0133334D01*
X0068600Y0133932D02*
X0085043Y0133932D01*
X0085385Y0134531D02*
X0068600Y0134531D01*
X0068600Y0135129D02*
X0085983Y0135129D01*
X0086870Y0135728D02*
X0068600Y0135728D01*
X0068600Y0136326D02*
X0097326Y0136326D01*
X0096727Y0135728D02*
X0095730Y0135728D01*
X0094716Y0137948D02*
X0096222Y0138572D01*
X0097376Y0139726D01*
X0098000Y0141232D01*
X0098000Y0142864D01*
X0097376Y0144370D01*
X0096222Y0145524D01*
X0094716Y0146148D01*
X0087884Y0146148D01*
X0086378Y0145524D01*
X0085224Y0144370D01*
X0084600Y0142864D01*
X0084600Y0141232D01*
X0085224Y0139726D01*
X0086378Y0138572D01*
X0087884Y0137948D01*
X0094716Y0137948D01*
X0095136Y0138122D02*
X0099000Y0138122D01*
X0099000Y0138721D02*
X0096371Y0138721D01*
X0096969Y0139319D02*
X0099000Y0139319D01*
X0099000Y0139918D02*
X0097455Y0139918D01*
X0097703Y0140516D02*
X0099000Y0140516D01*
X0099000Y0141115D02*
X0097951Y0141115D01*
X0098000Y0141713D02*
X0099000Y0141713D01*
X0099000Y0142312D02*
X0098000Y0142312D01*
X0097981Y0142910D02*
X0099000Y0142910D01*
X0099000Y0143509D02*
X0097733Y0143509D01*
X0097485Y0144107D02*
X0099000Y0144107D01*
X0099000Y0144706D02*
X0097041Y0144706D01*
X0096442Y0145304D02*
X0099000Y0145304D01*
X0099000Y0145903D02*
X0095308Y0145903D01*
X0094716Y0147948D02*
X0096222Y0148572D01*
X0097376Y0149726D01*
X0098000Y0151232D01*
X0098000Y0152864D01*
X0097376Y0154370D01*
X0096222Y0155524D01*
X0094716Y0156148D01*
X0087884Y0156148D01*
X0086378Y0155524D01*
X0085224Y0154370D01*
X0084600Y0152864D01*
X0084600Y0151232D01*
X0085224Y0149726D01*
X0086378Y0148572D01*
X0087884Y0147948D01*
X0094716Y0147948D01*
X0095557Y0148297D02*
X0099000Y0148297D01*
X0099000Y0148895D02*
X0096545Y0148895D01*
X0097144Y0149494D02*
X0099000Y0149494D01*
X0099000Y0150092D02*
X0097528Y0150092D01*
X0097776Y0150691D02*
X0099000Y0150691D01*
X0099000Y0151289D02*
X0098000Y0151289D01*
X0098000Y0151888D02*
X0099000Y0151888D01*
X0099000Y0152486D02*
X0098000Y0152486D01*
X0097908Y0153085D02*
X0099000Y0153085D01*
X0099000Y0153683D02*
X0097660Y0153683D01*
X0097413Y0154282D02*
X0099000Y0154282D01*
X0099000Y0154880D02*
X0096866Y0154880D01*
X0096267Y0155479D02*
X0099000Y0155479D01*
X0099000Y0156077D02*
X0094886Y0156077D01*
X0094716Y0157948D02*
X0096222Y0158572D01*
X0097376Y0159726D01*
X0098000Y0161232D01*
X0098000Y0162864D01*
X0097376Y0164370D01*
X0096222Y0165524D01*
X0094716Y0166148D01*
X0093653Y0166148D01*
X0097253Y0169748D01*
X0099656Y0169748D01*
X0099720Y0169684D01*
X0100745Y0169259D01*
X0101855Y0169259D01*
X0102880Y0169684D01*
X0103664Y0170468D01*
X0104089Y0171493D01*
X0104089Y0172603D01*
X0103664Y0173628D01*
X0102880Y0174412D01*
X0101855Y0174837D01*
X0100745Y0174837D01*
X0099720Y0174412D01*
X0099656Y0174348D01*
X0095347Y0174348D01*
X0089000Y0168001D01*
X0089000Y0166148D01*
X0087884Y0166148D01*
X0086378Y0165524D01*
X0085224Y0164370D01*
X0084600Y0162864D01*
X0084600Y0161232D01*
X0085224Y0159726D01*
X0086378Y0158572D01*
X0087884Y0157948D01*
X0094716Y0157948D01*
X0095979Y0158471D02*
X0099000Y0158471D01*
X0099000Y0157873D02*
X0068600Y0157873D01*
X0068600Y0158471D02*
X0086621Y0158471D01*
X0085880Y0159070D02*
X0068600Y0159070D01*
X0068600Y0159668D02*
X0085281Y0159668D01*
X0085000Y0160267D02*
X0068600Y0160267D01*
X0068600Y0160865D02*
X0084752Y0160865D01*
X0084600Y0161464D02*
X0068600Y0161464D01*
X0068600Y0162062D02*
X0084600Y0162062D01*
X0084600Y0162661D02*
X0068600Y0162661D01*
X0068600Y0163259D02*
X0084764Y0163259D01*
X0085012Y0163858D02*
X0068600Y0163858D01*
X0068600Y0164457D02*
X0085310Y0164457D01*
X0085909Y0165055D02*
X0068600Y0165055D01*
X0068600Y0165654D02*
X0086691Y0165654D01*
X0089000Y0166252D02*
X0068600Y0166252D01*
X0068600Y0166851D02*
X0089000Y0166851D01*
X0089000Y0167449D02*
X0068600Y0167449D01*
X0068600Y0168048D02*
X0089047Y0168048D01*
X0089645Y0168646D02*
X0068600Y0168646D01*
X0068600Y0169245D02*
X0090244Y0169245D01*
X0090842Y0169843D02*
X0068600Y0169843D01*
X0068600Y0170442D02*
X0083108Y0170442D01*
X0083602Y0169948D02*
X0086998Y0169948D01*
X0089400Y0172350D01*
X0089400Y0175746D01*
X0086998Y0178148D01*
X0083602Y0178148D01*
X0081200Y0175746D01*
X0081200Y0172350D01*
X0083602Y0169948D01*
X0082510Y0171040D02*
X0068600Y0171040D01*
X0068600Y0171639D02*
X0081911Y0171639D01*
X0081313Y0172237D02*
X0068600Y0172237D01*
X0068600Y0172836D02*
X0081200Y0172836D01*
X0081200Y0173434D02*
X0068600Y0173434D01*
X0068600Y0174033D02*
X0081200Y0174033D01*
X0081200Y0174631D02*
X0068600Y0174631D01*
X0068600Y0175230D02*
X0081200Y0175230D01*
X0081282Y0175828D02*
X0068600Y0175828D01*
X0068600Y0176427D02*
X0081880Y0176427D01*
X0082479Y0177025D02*
X0068600Y0177025D01*
X0068600Y0177624D02*
X0083077Y0177624D01*
X0087523Y0177624D02*
X0095926Y0177624D01*
X0095327Y0178222D02*
X0068378Y0178222D01*
X0067780Y0178821D02*
X0071275Y0178821D01*
X0071347Y0178748D02*
X0094802Y0178748D01*
X0096602Y0176948D01*
X0099998Y0176948D01*
X0102400Y0179350D01*
X0102400Y0182746D01*
X0099998Y0185148D01*
X0096602Y0185148D01*
X0094802Y0183348D01*
X0073253Y0183348D01*
X0065400Y0191201D01*
X0065400Y0193746D01*
X0062998Y0196148D01*
X0059602Y0196148D01*
X0057200Y0193746D01*
X0057200Y0190350D01*
X0059602Y0187948D01*
X0062147Y0187948D01*
X0071347Y0178748D01*
X0070676Y0179419D02*
X0067181Y0179419D01*
X0066583Y0180018D02*
X0070078Y0180018D01*
X0069479Y0180616D02*
X0065984Y0180616D01*
X0065386Y0181215D02*
X0068881Y0181215D01*
X0068282Y0181813D02*
X0064787Y0181813D01*
X0064189Y0182412D02*
X0067683Y0182412D01*
X0067085Y0183010D02*
X0063590Y0183010D01*
X0062992Y0183609D02*
X0066486Y0183609D01*
X0065888Y0184207D02*
X0062393Y0184207D01*
X0061795Y0184806D02*
X0065289Y0184806D01*
X0064691Y0185404D02*
X0061196Y0185404D01*
X0060598Y0186003D02*
X0064092Y0186003D01*
X0063494Y0186601D02*
X0059999Y0186601D01*
X0059401Y0187200D02*
X0062895Y0187200D01*
X0062297Y0187798D02*
X0058802Y0187798D01*
X0059153Y0188397D02*
X0058204Y0188397D01*
X0058554Y0188995D02*
X0057605Y0188995D01*
X0057956Y0189594D02*
X0057007Y0189594D01*
X0057357Y0190192D02*
X0056408Y0190192D01*
X0055810Y0190791D02*
X0057200Y0190791D01*
X0057200Y0191390D02*
X0055400Y0191390D01*
X0055400Y0191988D02*
X0057200Y0191988D01*
X0057200Y0192587D02*
X0055400Y0192587D01*
X0055400Y0193185D02*
X0057200Y0193185D01*
X0057237Y0193784D02*
X0055363Y0193784D01*
X0054764Y0194382D02*
X0057836Y0194382D01*
X0058434Y0194981D02*
X0054166Y0194981D01*
X0053567Y0195579D02*
X0059033Y0195579D01*
X0063567Y0195579D02*
X0069033Y0195579D01*
X0069602Y0196148D02*
X0067200Y0193746D01*
X0067200Y0190350D01*
X0069602Y0187948D01*
X0072998Y0187948D01*
X0075400Y0190350D01*
X0075400Y0193746D01*
X0072998Y0196148D01*
X0069602Y0196148D01*
X0068434Y0194981D02*
X0064166Y0194981D01*
X0064764Y0194382D02*
X0067836Y0194382D01*
X0067237Y0193784D02*
X0065363Y0193784D01*
X0065400Y0193185D02*
X0067200Y0193185D01*
X0067200Y0192587D02*
X0065400Y0192587D01*
X0065400Y0191988D02*
X0067200Y0191988D01*
X0067200Y0191390D02*
X0065400Y0191390D01*
X0065810Y0190791D02*
X0067200Y0190791D01*
X0067357Y0190192D02*
X0066408Y0190192D01*
X0067007Y0189594D02*
X0067956Y0189594D01*
X0067605Y0188995D02*
X0068554Y0188995D01*
X0068204Y0188397D02*
X0069153Y0188397D01*
X0068802Y0187798D02*
X0124253Y0187798D01*
X0124240Y0187786D02*
X0124240Y0187786D01*
X0123643Y0187200D02*
X0069401Y0187200D01*
X0069999Y0186601D02*
X0123033Y0186601D01*
X0122423Y0186003D02*
X0070598Y0186003D01*
X0071196Y0185404D02*
X0121814Y0185404D01*
X0121204Y0184806D02*
X0100340Y0184806D01*
X0100939Y0184207D02*
X0120594Y0184207D01*
X0119984Y0183609D02*
X0101537Y0183609D01*
X0102136Y0183010D02*
X0119374Y0183010D01*
X0118765Y0182412D02*
X0102400Y0182412D01*
X0102400Y0181813D02*
X0118155Y0181813D01*
X0117545Y0181215D02*
X0102400Y0181215D01*
X0102400Y0180616D02*
X0116935Y0180616D01*
X0116325Y0180018D02*
X0102400Y0180018D01*
X0102400Y0179419D02*
X0115716Y0179419D01*
X0115106Y0178821D02*
X0101871Y0178821D01*
X0101273Y0178222D02*
X0114496Y0178222D01*
X0113886Y0177624D02*
X0100674Y0177624D01*
X0100075Y0177025D02*
X0113276Y0177025D01*
X0112666Y0176427D02*
X0088720Y0176427D01*
X0089318Y0175828D02*
X0112057Y0175828D01*
X0111447Y0175230D02*
X0089400Y0175230D01*
X0089400Y0174631D02*
X0100248Y0174631D01*
X0102352Y0174631D02*
X0110837Y0174631D01*
X0110227Y0174033D02*
X0103260Y0174033D01*
X0103745Y0173434D02*
X0109617Y0173434D01*
X0109008Y0172836D02*
X0103993Y0172836D01*
X0104089Y0172237D02*
X0108398Y0172237D01*
X0107788Y0171639D02*
X0104089Y0171639D01*
X0103901Y0171040D02*
X0107178Y0171040D01*
X0106568Y0170442D02*
X0103638Y0170442D01*
X0103039Y0169843D02*
X0105959Y0169843D01*
X0105349Y0169245D02*
X0096749Y0169245D01*
X0096151Y0168646D02*
X0104739Y0168646D01*
X0104129Y0168048D02*
X0095552Y0168048D01*
X0094954Y0167449D02*
X0103519Y0167449D01*
X0102910Y0166851D02*
X0094355Y0166851D01*
X0093757Y0166252D02*
X0102300Y0166252D01*
X0101690Y0165654D02*
X0095909Y0165654D01*
X0096691Y0165055D02*
X0101080Y0165055D01*
X0100470Y0164457D02*
X0097290Y0164457D01*
X0097588Y0163858D02*
X0099857Y0163858D01*
X0099251Y0163259D02*
X0097836Y0163259D01*
X0098000Y0162661D02*
X0099000Y0162661D01*
X0099000Y0162062D02*
X0098000Y0162062D01*
X0098000Y0161464D02*
X0098994Y0161464D01*
X0099000Y0160865D02*
X0097848Y0160865D01*
X0097600Y0160267D02*
X0099000Y0160267D01*
X0099000Y0159668D02*
X0097319Y0159668D01*
X0096720Y0159070D02*
X0099000Y0159070D01*
X0099000Y0157274D02*
X0068600Y0157274D01*
X0068600Y0156676D02*
X0099000Y0156676D01*
X0103600Y0156676D02*
X0109000Y0156676D01*
X0109000Y0157274D02*
X0103600Y0157274D01*
X0103600Y0157873D02*
X0109000Y0157873D01*
X0109000Y0158471D02*
X0103600Y0158471D01*
X0103600Y0159070D02*
X0109000Y0159070D01*
X0109000Y0159668D02*
X0103600Y0159668D01*
X0103600Y0160267D02*
X0109000Y0160267D01*
X0109000Y0160865D02*
X0103600Y0160865D01*
X0103988Y0161464D02*
X0109000Y0161464D01*
X0109000Y0162062D02*
X0104598Y0162062D01*
X0105208Y0162661D02*
X0109000Y0162661D01*
X0109000Y0163259D02*
X0105818Y0163259D01*
X0106428Y0163858D02*
X0109000Y0163858D01*
X0109000Y0164457D02*
X0107037Y0164457D01*
X0107647Y0165055D02*
X0109000Y0165055D01*
X0109000Y0165654D02*
X0108257Y0165654D01*
X0108867Y0166252D02*
X0109251Y0166252D01*
X0109477Y0166851D02*
X0109850Y0166851D01*
X0110086Y0167449D02*
X0110448Y0167449D01*
X0110696Y0168048D02*
X0111047Y0168048D01*
X0111306Y0168646D02*
X0111645Y0168646D01*
X0111916Y0169245D02*
X0112244Y0169245D01*
X0112526Y0169843D02*
X0112842Y0169843D01*
X0113135Y0170442D02*
X0113441Y0170442D01*
X0113745Y0171040D02*
X0114039Y0171040D01*
X0114355Y0171639D02*
X0114638Y0171639D01*
X0114965Y0172237D02*
X0115236Y0172237D01*
X0115575Y0172836D02*
X0115835Y0172836D01*
X0116184Y0173434D02*
X0116433Y0173434D01*
X0116794Y0174033D02*
X0117032Y0174033D01*
X0117404Y0174631D02*
X0117630Y0174631D01*
X0118014Y0175230D02*
X0118229Y0175230D01*
X0118624Y0175828D02*
X0118828Y0175828D01*
X0119234Y0176427D02*
X0119426Y0176427D01*
X0119843Y0177025D02*
X0120025Y0177025D01*
X0120453Y0177624D02*
X0120623Y0177624D01*
X0121063Y0178222D02*
X0121222Y0178222D01*
X0121673Y0178821D02*
X0126706Y0178821D01*
X0127894Y0178821D02*
X0135012Y0178821D01*
X0134413Y0179419D02*
X0122283Y0179419D01*
X0122892Y0180018D02*
X0134400Y0180018D01*
X0134400Y0179433D02*
X0136685Y0177148D01*
X0138000Y0177148D01*
X0138000Y0180748D01*
X0138600Y0180748D01*
X0138600Y0177148D01*
X0139915Y0177148D01*
X0142200Y0179433D01*
X0142200Y0180748D01*
X0138600Y0180748D01*
X0138600Y0181348D01*
X0142200Y0181348D01*
X0142200Y0182663D01*
X0139915Y0184948D01*
X0138600Y0184948D01*
X0138600Y0181348D01*
X0138000Y0181348D01*
X0138000Y0180748D01*
X0134400Y0180748D01*
X0134400Y0179433D01*
X0134400Y0180616D02*
X0123502Y0180616D01*
X0124112Y0181215D02*
X0138000Y0181215D01*
X0138000Y0181348D02*
X0134400Y0181348D01*
X0134400Y0182663D01*
X0136685Y0184948D01*
X0138000Y0184948D01*
X0138000Y0181348D01*
X0138000Y0181813D02*
X0138600Y0181813D01*
X0138600Y0181215D02*
X0150881Y0181215D01*
X0151479Y0180616D02*
X0142200Y0180616D01*
X0142200Y0180018D02*
X0152078Y0180018D01*
X0152676Y0179419D02*
X0142187Y0179419D01*
X0141588Y0178821D02*
X0194673Y0178821D01*
X0195272Y0178222D02*
X0157143Y0178222D01*
X0157622Y0178024D02*
X0156116Y0178648D01*
X0154484Y0178648D01*
X0152978Y0178024D01*
X0151824Y0176870D01*
X0151200Y0175364D01*
X0151200Y0173732D01*
X0151824Y0172226D01*
X0152978Y0171072D01*
X0154484Y0170448D01*
X0156116Y0170448D01*
X0157622Y0171072D01*
X0158776Y0172226D01*
X0159400Y0173732D01*
X0159400Y0175364D01*
X0158776Y0176870D01*
X0157622Y0178024D01*
X0158023Y0177624D02*
X0195893Y0177624D01*
X0196380Y0176427D02*
X0158960Y0176427D01*
X0159208Y0175828D02*
X0195509Y0175828D01*
X0194931Y0175230D02*
X0159400Y0175230D01*
X0159400Y0174631D02*
X0194505Y0174631D01*
X0194200Y0174033D02*
X0159400Y0174033D01*
X0159276Y0173434D02*
X0193993Y0173434D01*
X0193862Y0172836D02*
X0159029Y0172836D01*
X0158781Y0172237D02*
X0198500Y0172237D01*
X0194656Y0169245D02*
X0133048Y0169245D01*
X0132880Y0169412D02*
X0131855Y0169837D01*
X0130745Y0169837D01*
X0129720Y0169412D01*
X0128936Y0168628D01*
X0128511Y0167603D01*
X0128511Y0166493D01*
X0128936Y0165468D01*
X0129000Y0165404D01*
X0129000Y0158692D01*
X0128936Y0158628D01*
X0128511Y0157603D01*
X0128511Y0156493D01*
X0128936Y0155468D01*
X0129720Y0154684D01*
X0130745Y0154259D01*
X0131855Y0154259D01*
X0132880Y0154684D01*
X0133664Y0155468D01*
X0134089Y0156493D01*
X0134089Y0157603D01*
X0133664Y0158628D01*
X0133600Y0158692D01*
X0133600Y0165404D01*
X0133664Y0165468D01*
X0134089Y0166493D01*
X0134089Y0167603D01*
X0133664Y0168628D01*
X0132880Y0169412D01*
X0133646Y0168646D02*
X0195131Y0168646D01*
X0195800Y0168048D02*
X0133905Y0168048D01*
X0134089Y0167449D02*
X0196813Y0167449D01*
X0196806Y0166851D02*
X0134089Y0166851D01*
X0133989Y0166252D02*
X0195650Y0166252D01*
X0195052Y0165654D02*
X0133741Y0165654D01*
X0133600Y0165055D02*
X0194453Y0165055D01*
X0194169Y0164457D02*
X0133600Y0164457D01*
X0133600Y0163858D02*
X0193921Y0163858D01*
X0193673Y0163259D02*
X0133600Y0163259D01*
X0133600Y0162661D02*
X0193600Y0162661D01*
X0193600Y0162062D02*
X0133600Y0162062D01*
X0133600Y0161464D02*
X0193600Y0161464D01*
X0193661Y0160865D02*
X0133600Y0160865D01*
X0133600Y0160267D02*
X0193909Y0160267D01*
X0194157Y0159668D02*
X0133600Y0159668D01*
X0133600Y0159070D02*
X0194424Y0159070D01*
X0195023Y0158471D02*
X0133729Y0158471D01*
X0133977Y0157873D02*
X0195621Y0157873D01*
X0196736Y0157274D02*
X0134089Y0157274D01*
X0134089Y0156676D02*
X0196384Y0156676D01*
X0195475Y0156077D02*
X0183069Y0156077D01*
X0182998Y0156148D02*
X0179602Y0156148D01*
X0177200Y0153746D01*
X0177200Y0150350D01*
X0179602Y0147948D01*
X0182998Y0147948D01*
X0185400Y0150350D01*
X0185400Y0153746D01*
X0182998Y0156148D01*
X0183667Y0155479D02*
X0194877Y0155479D01*
X0194345Y0154880D02*
X0184266Y0154880D01*
X0184864Y0154282D02*
X0194097Y0154282D01*
X0193849Y0153683D02*
X0185400Y0153683D01*
X0185400Y0153085D02*
X0193601Y0153085D01*
X0193600Y0152486D02*
X0185400Y0152486D01*
X0185400Y0151888D02*
X0193600Y0151888D01*
X0193600Y0151289D02*
X0185400Y0151289D01*
X0185400Y0150691D02*
X0193734Y0150691D01*
X0193982Y0150092D02*
X0185142Y0150092D01*
X0184544Y0149494D02*
X0194230Y0149494D01*
X0194599Y0148895D02*
X0183945Y0148895D01*
X0183347Y0148297D02*
X0195197Y0148297D01*
X0195796Y0147698D02*
X0113600Y0147698D01*
X0113600Y0147100D02*
X0197158Y0147100D01*
X0195963Y0146501D02*
X0113600Y0146501D01*
X0113600Y0145903D02*
X0117292Y0145903D01*
X0117884Y0146148D02*
X0116378Y0145524D01*
X0115224Y0144370D01*
X0114600Y0142864D01*
X0114600Y0141232D01*
X0115224Y0139726D01*
X0116378Y0138572D01*
X0117884Y0137948D01*
X0124716Y0137948D01*
X0126222Y0138572D01*
X0127376Y0139726D01*
X0128000Y0141232D01*
X0128000Y0142864D01*
X0127376Y0144370D01*
X0126222Y0145524D01*
X0124716Y0146148D01*
X0117884Y0146148D01*
X0116158Y0145304D02*
X0113600Y0145304D01*
X0113600Y0144706D02*
X0115559Y0144706D01*
X0115115Y0144107D02*
X0113600Y0144107D01*
X0113600Y0143509D02*
X0114867Y0143509D01*
X0114619Y0142910D02*
X0113600Y0142910D01*
X0113600Y0142312D02*
X0114600Y0142312D01*
X0114600Y0141713D02*
X0113600Y0141713D01*
X0113600Y0141115D02*
X0114649Y0141115D01*
X0114897Y0140516D02*
X0113600Y0140516D01*
X0113600Y0139918D02*
X0115145Y0139918D01*
X0115631Y0139319D02*
X0113600Y0139319D01*
X0113600Y0138721D02*
X0116229Y0138721D01*
X0117464Y0138122D02*
X0113600Y0138122D01*
X0113600Y0137523D02*
X0196135Y0137523D01*
X0195372Y0138122D02*
X0125136Y0138122D01*
X0126371Y0138721D02*
X0194774Y0138721D01*
X0194302Y0139319D02*
X0126969Y0139319D01*
X0127455Y0139918D02*
X0194054Y0139918D01*
X0193806Y0140516D02*
X0127703Y0140516D01*
X0127951Y0141115D02*
X0193600Y0141115D01*
X0193600Y0141713D02*
X0128000Y0141713D01*
X0128000Y0142312D02*
X0193600Y0142312D01*
X0193600Y0142910D02*
X0127981Y0142910D01*
X0127733Y0143509D02*
X0193777Y0143509D01*
X0194024Y0144107D02*
X0127485Y0144107D01*
X0127041Y0144706D02*
X0194272Y0144706D01*
X0194702Y0145304D02*
X0126442Y0145304D01*
X0125308Y0145903D02*
X0195301Y0145903D01*
X0196986Y0136925D02*
X0113600Y0136925D01*
X0113600Y0136326D02*
X0195725Y0136326D01*
X0195126Y0135728D02*
X0125730Y0135728D01*
X0126222Y0135524D02*
X0124716Y0136148D01*
X0117884Y0136148D01*
X0116378Y0135524D01*
X0115224Y0134370D01*
X0114600Y0132864D01*
X0114600Y0131232D01*
X0115224Y0129726D01*
X0116378Y0128572D01*
X0117884Y0127948D01*
X0124716Y0127948D01*
X0126222Y0128572D01*
X0127376Y0129726D01*
X0128000Y0131232D01*
X0128000Y0132864D01*
X0127376Y0134370D01*
X0126222Y0135524D01*
X0126617Y0135129D02*
X0194528Y0135129D01*
X0194200Y0134531D02*
X0127215Y0134531D01*
X0127557Y0133932D02*
X0193952Y0133932D01*
X0193704Y0133334D02*
X0127805Y0133334D01*
X0128000Y0132735D02*
X0193600Y0132735D01*
X0193600Y0132137D02*
X0128000Y0132137D01*
X0128000Y0131538D02*
X0193600Y0131538D01*
X0193631Y0130940D02*
X0127879Y0130940D01*
X0127631Y0130341D02*
X0193878Y0130341D01*
X0194126Y0129743D02*
X0127383Y0129743D01*
X0126795Y0129144D02*
X0194374Y0129144D01*
X0194948Y0128546D02*
X0126159Y0128546D01*
X0126151Y0125553D02*
X0194951Y0125553D01*
X0194376Y0124955D02*
X0126792Y0124955D01*
X0127382Y0124356D02*
X0194128Y0124356D01*
X0193880Y0123758D02*
X0127630Y0123758D01*
X0127878Y0123159D02*
X0193632Y0123159D01*
X0193600Y0122561D02*
X0128000Y0122561D01*
X0128000Y0121962D02*
X0193600Y0121962D01*
X0193600Y0121364D02*
X0128000Y0121364D01*
X0127806Y0120765D02*
X0193703Y0120765D01*
X0193951Y0120167D02*
X0127559Y0120167D01*
X0127218Y0119568D02*
X0194199Y0119568D01*
X0194524Y0118970D02*
X0126620Y0118970D01*
X0117472Y0115977D02*
X0095128Y0115977D01*
X0094716Y0116148D02*
X0096222Y0115524D01*
X0097376Y0114370D01*
X0098000Y0112864D01*
X0098000Y0111232D01*
X0097376Y0109726D01*
X0096222Y0108572D01*
X0094716Y0107948D01*
X0087884Y0107948D01*
X0086378Y0108572D01*
X0085224Y0109726D01*
X0084600Y0111232D01*
X0084600Y0112864D01*
X0085224Y0114370D01*
X0086378Y0115524D01*
X0087884Y0116148D01*
X0094716Y0116148D01*
X0096368Y0115379D02*
X0116232Y0115379D01*
X0115634Y0114780D02*
X0096966Y0114780D01*
X0097454Y0114182D02*
X0115146Y0114182D01*
X0114898Y0113583D02*
X0097702Y0113583D01*
X0097950Y0112985D02*
X0114650Y0112985D01*
X0114600Y0112386D02*
X0098000Y0112386D01*
X0098000Y0111788D02*
X0114600Y0111788D01*
X0114618Y0111189D02*
X0097982Y0111189D01*
X0097734Y0110590D02*
X0114866Y0110590D01*
X0115114Y0109992D02*
X0097486Y0109992D01*
X0097044Y0109393D02*
X0115556Y0109393D01*
X0116155Y0108795D02*
X0096445Y0108795D01*
X0095315Y0108196D02*
X0117285Y0108196D01*
X0117050Y0105802D02*
X0095550Y0105802D01*
X0096222Y0105524D02*
X0094716Y0106148D01*
X0087884Y0106148D01*
X0086378Y0105524D01*
X0085224Y0104370D01*
X0084600Y0102864D01*
X0084600Y0101232D01*
X0085224Y0099726D01*
X0086378Y0098572D01*
X0087884Y0097948D01*
X0094716Y0097948D01*
X0096222Y0098572D01*
X0097376Y0099726D01*
X0098000Y0101232D01*
X0098000Y0102864D01*
X0097376Y0104370D01*
X0096222Y0105524D01*
X0096542Y0105204D02*
X0116058Y0105204D01*
X0115459Y0104605D02*
X0097141Y0104605D01*
X0097526Y0104007D02*
X0115074Y0104007D01*
X0114826Y0103408D02*
X0097774Y0103408D01*
X0098000Y0102810D02*
X0114600Y0102810D01*
X0114600Y0102211D02*
X0098000Y0102211D01*
X0098000Y0101613D02*
X0114600Y0101613D01*
X0114690Y0101014D02*
X0097910Y0101014D01*
X0097662Y0100416D02*
X0114938Y0100416D01*
X0115186Y0099817D02*
X0097414Y0099817D01*
X0096869Y0099219D02*
X0115731Y0099219D01*
X0116329Y0098620D02*
X0096270Y0098620D01*
X0094894Y0098022D02*
X0117706Y0098022D01*
X0116628Y0095628D02*
X0095449Y0095628D01*
X0096434Y0095029D02*
X0115883Y0095029D01*
X0115284Y0094431D02*
X0096998Y0094431D01*
X0097382Y0093832D02*
X0115001Y0093832D01*
X0114753Y0093234D02*
X0097630Y0093234D01*
X0097760Y0092635D02*
X0114600Y0092635D01*
X0124894Y0098022D02*
X0167074Y0098022D01*
X0167672Y0097423D02*
X0068600Y0097423D01*
X0068600Y0096825D02*
X0168271Y0096825D01*
X0168869Y0096226D02*
X0068600Y0096226D01*
X0068600Y0095628D02*
X0087151Y0095628D01*
X0086853Y0095504D02*
X0086214Y0095077D01*
X0085671Y0094534D01*
X0085244Y0093895D01*
X0084950Y0093186D01*
X0084800Y0092432D01*
X0084800Y0092348D01*
X0091000Y0092348D01*
X0091000Y0095948D01*
X0088316Y0095948D01*
X0087562Y0095798D01*
X0086853Y0095504D01*
X0086166Y0095029D02*
X0068600Y0095029D01*
X0068600Y0094431D02*
X0085602Y0094431D01*
X0085218Y0093832D02*
X0068600Y0093832D01*
X0068600Y0093234D02*
X0084970Y0093234D01*
X0084840Y0092635D02*
X0068600Y0092635D01*
X0068600Y0092037D02*
X0074755Y0092037D01*
X0073336Y0091438D02*
X0068600Y0091438D01*
X0068600Y0090840D02*
X0072738Y0090840D01*
X0072139Y0090241D02*
X0068600Y0090241D01*
X0068600Y0089643D02*
X0071746Y0089643D01*
X0071498Y0089044D02*
X0068600Y0089044D01*
X0068600Y0088446D02*
X0071250Y0088446D01*
X0071100Y0087847D02*
X0068600Y0087847D01*
X0068600Y0087249D02*
X0071100Y0087249D01*
X0071100Y0086650D02*
X0068600Y0086650D01*
X0068556Y0086052D02*
X0071100Y0086052D01*
X0071332Y0085453D02*
X0067958Y0085453D01*
X0067359Y0084855D02*
X0071580Y0084855D01*
X0071828Y0084256D02*
X0066761Y0084256D01*
X0066162Y0083657D02*
X0072337Y0083657D01*
X0072935Y0083059D02*
X0065564Y0083059D01*
X0064965Y0082460D02*
X0073787Y0082460D01*
X0073595Y0081263D02*
X0063768Y0081263D01*
X0063170Y0080665D02*
X0072846Y0080665D01*
X0072313Y0080066D02*
X0062571Y0080066D01*
X0061973Y0079468D02*
X0071921Y0079468D01*
X0071634Y0078869D02*
X0061374Y0078869D01*
X0060776Y0078271D02*
X0071440Y0078271D01*
X0071337Y0077672D02*
X0060177Y0077672D01*
X0059579Y0077074D02*
X0076000Y0077074D01*
X0076600Y0077074D02*
X0169000Y0077074D01*
X0169000Y0077672D02*
X0156940Y0077672D01*
X0156915Y0077648D02*
X0159200Y0079933D01*
X0159200Y0081248D01*
X0155600Y0081248D01*
X0155600Y0077648D01*
X0156915Y0077648D01*
X0157538Y0078271D02*
X0169000Y0078271D01*
X0169000Y0078869D02*
X0158137Y0078869D01*
X0158735Y0079468D02*
X0169000Y0079468D01*
X0169000Y0080066D02*
X0159200Y0080066D01*
X0159200Y0080665D02*
X0169000Y0080665D01*
X0168832Y0081263D02*
X0155600Y0081263D01*
X0155600Y0081248D02*
X0155600Y0081848D01*
X0159200Y0081848D01*
X0159200Y0083163D01*
X0156915Y0085448D01*
X0155600Y0085448D01*
X0155600Y0081848D01*
X0155000Y0081848D01*
X0155000Y0081248D01*
X0155600Y0081248D01*
X0155600Y0080665D02*
X0155000Y0080665D01*
X0155000Y0081248D02*
X0155000Y0077648D01*
X0153685Y0077648D01*
X0151400Y0079933D01*
X0151400Y0081248D01*
X0155000Y0081248D01*
X0155000Y0081263D02*
X0139400Y0081263D01*
X0139372Y0080665D02*
X0151400Y0080665D01*
X0151400Y0080066D02*
X0139124Y0080066D01*
X0138876Y0079468D02*
X0151865Y0079468D01*
X0152463Y0078869D02*
X0138420Y0078869D01*
X0137821Y0078271D02*
X0153062Y0078271D01*
X0153660Y0077672D02*
X0136657Y0077672D01*
X0139400Y0081862D02*
X0151400Y0081862D01*
X0151400Y0081848D02*
X0155000Y0081848D01*
X0155000Y0085448D01*
X0153685Y0085448D01*
X0151400Y0083163D01*
X0151400Y0081848D01*
X0151400Y0082460D02*
X0139360Y0082460D01*
X0139112Y0083059D02*
X0151400Y0083059D01*
X0151894Y0083657D02*
X0138864Y0083657D01*
X0138390Y0084256D02*
X0152493Y0084256D01*
X0153091Y0084855D02*
X0137792Y0084855D01*
X0136586Y0085453D02*
X0164642Y0085453D01*
X0165241Y0084855D02*
X0157509Y0084855D01*
X0158107Y0084256D02*
X0165839Y0084256D01*
X0166438Y0083657D02*
X0158706Y0083657D01*
X0159200Y0083059D02*
X0167036Y0083059D01*
X0167635Y0082460D02*
X0159200Y0082460D01*
X0159200Y0081862D02*
X0168233Y0081862D01*
X0162847Y0087249D02*
X0081500Y0087249D01*
X0074935Y0081862D02*
X0064367Y0081862D01*
X0060854Y0084855D02*
X0015766Y0084855D01*
X0016014Y0084256D02*
X0060255Y0084256D01*
X0059657Y0083657D02*
X0016262Y0083657D01*
X0016500Y0083059D02*
X0059058Y0083059D01*
X0058460Y0082460D02*
X0016500Y0082460D01*
X0016500Y0081862D02*
X0057861Y0081862D01*
X0057263Y0081263D02*
X0016500Y0081263D01*
X0016356Y0080665D02*
X0056664Y0080665D01*
X0056066Y0080066D02*
X0016108Y0080066D01*
X0015860Y0079468D02*
X0049854Y0079468D01*
X0049177Y0078869D02*
X0015475Y0078869D01*
X0014877Y0078271D02*
X0048788Y0078271D01*
X0048540Y0077672D02*
X0014278Y0077672D01*
X0013624Y0076475D02*
X0048518Y0076475D01*
X0048511Y0077074D02*
X0012880Y0077074D01*
X0014537Y0075877D02*
X0048766Y0075877D01*
X0049125Y0075278D02*
X0015133Y0075278D01*
X0015568Y0074680D02*
X0049729Y0074680D01*
X0052871Y0074680D02*
X0071895Y0074680D01*
X0071618Y0075278D02*
X0057783Y0075278D01*
X0058381Y0075877D02*
X0071423Y0075877D01*
X0071328Y0076475D02*
X0058980Y0076475D01*
X0055467Y0079468D02*
X0052746Y0079468D01*
X0061452Y0085453D02*
X0015249Y0085453D01*
X0014650Y0086052D02*
X0062051Y0086052D01*
X0062649Y0086650D02*
X0013778Y0086650D01*
X0013301Y0087249D02*
X0063248Y0087249D01*
X0063846Y0087847D02*
X0014453Y0087847D01*
X0015051Y0088446D02*
X0064000Y0088446D01*
X0064000Y0089044D02*
X0015650Y0089044D01*
X0015932Y0089643D02*
X0064000Y0089643D01*
X0064000Y0090241D02*
X0016180Y0090241D01*
X0016428Y0090840D02*
X0064000Y0090840D01*
X0064000Y0091438D02*
X0016500Y0091438D01*
X0016500Y0092037D02*
X0064000Y0092037D01*
X0064000Y0092635D02*
X0016500Y0092635D01*
X0016437Y0093234D02*
X0064000Y0093234D01*
X0064000Y0093832D02*
X0016189Y0093832D01*
X0015942Y0094431D02*
X0064000Y0094431D01*
X0064000Y0095029D02*
X0015673Y0095029D01*
X0015074Y0095628D02*
X0064000Y0095628D01*
X0064000Y0096226D02*
X0014476Y0096226D01*
X0013356Y0096825D02*
X0064000Y0096825D01*
X0064000Y0097423D02*
X0013723Y0097423D01*
X0014628Y0098022D02*
X0064000Y0098022D01*
X0064000Y0098620D02*
X0015226Y0098620D01*
X0015757Y0099219D02*
X0064000Y0099219D01*
X0064000Y0099817D02*
X0063013Y0099817D01*
X0063612Y0100416D02*
X0064000Y0100416D01*
X0064000Y0101014D02*
X0063891Y0101014D01*
X0064000Y0103408D02*
X0063755Y0103408D01*
X0064000Y0104007D02*
X0063285Y0104007D01*
X0064000Y0104605D02*
X0062414Y0104605D01*
X0061397Y0105204D02*
X0064000Y0105204D01*
X0064000Y0105802D02*
X0060798Y0105802D01*
X0060200Y0106401D02*
X0064000Y0106401D01*
X0064000Y0106999D02*
X0059601Y0106999D01*
X0059003Y0107598D02*
X0064000Y0107598D01*
X0064000Y0108196D02*
X0058404Y0108196D01*
X0057806Y0108795D02*
X0064000Y0108795D01*
X0064000Y0109393D02*
X0057207Y0109393D01*
X0056609Y0109992D02*
X0064000Y0109992D01*
X0064000Y0110590D02*
X0056010Y0110590D01*
X0055412Y0111189D02*
X0064000Y0111189D01*
X0064000Y0111788D02*
X0054813Y0111788D01*
X0054215Y0112386D02*
X0064000Y0112386D01*
X0064000Y0112985D02*
X0053616Y0112985D01*
X0053600Y0113583D02*
X0064000Y0113583D01*
X0064000Y0114182D02*
X0053600Y0114182D01*
X0053600Y0114780D02*
X0064000Y0114780D01*
X0064000Y0115379D02*
X0053600Y0115379D01*
X0053600Y0115977D02*
X0064000Y0115977D01*
X0064000Y0116576D02*
X0053600Y0116576D01*
X0053600Y0117174D02*
X0064000Y0117174D01*
X0064000Y0117773D02*
X0053600Y0117773D01*
X0053600Y0118371D02*
X0064000Y0118371D01*
X0064000Y0118970D02*
X0053600Y0118970D01*
X0053600Y0119568D02*
X0064000Y0119568D01*
X0064000Y0120167D02*
X0053600Y0120167D01*
X0053600Y0120765D02*
X0064000Y0120765D01*
X0064000Y0121364D02*
X0053600Y0121364D01*
X0053600Y0121962D02*
X0064000Y0121962D01*
X0064000Y0122561D02*
X0053600Y0122561D01*
X0053600Y0123159D02*
X0064000Y0123159D01*
X0064000Y0123758D02*
X0053600Y0123758D01*
X0053600Y0124356D02*
X0064000Y0124356D01*
X0064000Y0124955D02*
X0053600Y0124955D01*
X0053600Y0125553D02*
X0064000Y0125553D01*
X0064000Y0126152D02*
X0053600Y0126152D01*
X0053600Y0126750D02*
X0064000Y0126750D01*
X0064000Y0127349D02*
X0053600Y0127349D01*
X0053600Y0127947D02*
X0064000Y0127947D01*
X0064000Y0128546D02*
X0053600Y0128546D01*
X0053600Y0129144D02*
X0064000Y0129144D01*
X0064000Y0129743D02*
X0053600Y0129743D01*
X0053600Y0130341D02*
X0064000Y0130341D01*
X0064000Y0130940D02*
X0053600Y0130940D01*
X0053600Y0131538D02*
X0064000Y0131538D01*
X0064000Y0132137D02*
X0053600Y0132137D01*
X0053600Y0132735D02*
X0064000Y0132735D01*
X0064000Y0133334D02*
X0053600Y0133334D01*
X0053600Y0133932D02*
X0064000Y0133932D01*
X0064000Y0134531D02*
X0053600Y0134531D01*
X0053600Y0135129D02*
X0064000Y0135129D01*
X0064000Y0135728D02*
X0053600Y0135728D01*
X0053600Y0136326D02*
X0064000Y0136326D01*
X0064000Y0136925D02*
X0053600Y0136925D01*
X0053600Y0137523D02*
X0064000Y0137523D01*
X0064000Y0138122D02*
X0053600Y0138122D01*
X0053600Y0138721D02*
X0064000Y0138721D01*
X0064000Y0139319D02*
X0053600Y0139319D01*
X0053600Y0139918D02*
X0064000Y0139918D01*
X0064000Y0140516D02*
X0053600Y0140516D01*
X0053600Y0141115D02*
X0064000Y0141115D01*
X0064000Y0141713D02*
X0053600Y0141713D01*
X0053600Y0142312D02*
X0064000Y0142312D01*
X0064000Y0142910D02*
X0053600Y0142910D01*
X0053600Y0143509D02*
X0064000Y0143509D01*
X0064000Y0144107D02*
X0053600Y0144107D01*
X0053600Y0144706D02*
X0064000Y0144706D01*
X0064000Y0145304D02*
X0053600Y0145304D01*
X0053600Y0145903D02*
X0064000Y0145903D01*
X0064000Y0146501D02*
X0053600Y0146501D01*
X0053600Y0147100D02*
X0064000Y0147100D01*
X0064000Y0147698D02*
X0053600Y0147698D01*
X0053600Y0148297D02*
X0064000Y0148297D01*
X0064000Y0148895D02*
X0053600Y0148895D01*
X0053600Y0149494D02*
X0064000Y0149494D01*
X0064000Y0150092D02*
X0053600Y0150092D01*
X0053600Y0150691D02*
X0064000Y0150691D01*
X0064000Y0151289D02*
X0053600Y0151289D01*
X0053600Y0151888D02*
X0064000Y0151888D01*
X0064000Y0152486D02*
X0053600Y0152486D01*
X0053600Y0153085D02*
X0064000Y0153085D01*
X0064000Y0153683D02*
X0053600Y0153683D01*
X0053600Y0154282D02*
X0064000Y0154282D01*
X0064000Y0154880D02*
X0053600Y0154880D01*
X0053600Y0155479D02*
X0064000Y0155479D01*
X0064000Y0156077D02*
X0053600Y0156077D01*
X0053600Y0156676D02*
X0064000Y0156676D01*
X0064000Y0157274D02*
X0053600Y0157274D01*
X0053600Y0157873D02*
X0064000Y0157873D01*
X0064000Y0158471D02*
X0053600Y0158471D01*
X0053600Y0159070D02*
X0064000Y0159070D01*
X0064000Y0159668D02*
X0053600Y0159668D01*
X0053600Y0160267D02*
X0064000Y0160267D01*
X0064000Y0160865D02*
X0053600Y0160865D01*
X0053600Y0161464D02*
X0064000Y0161464D01*
X0064000Y0162062D02*
X0053600Y0162062D01*
X0053600Y0162661D02*
X0064000Y0162661D01*
X0064000Y0163259D02*
X0053600Y0163259D01*
X0053600Y0163858D02*
X0064000Y0163858D01*
X0064000Y0164457D02*
X0053600Y0164457D01*
X0053600Y0165055D02*
X0064000Y0165055D01*
X0064000Y0165654D02*
X0053600Y0165654D01*
X0053600Y0166252D02*
X0064000Y0166252D01*
X0064000Y0166851D02*
X0053600Y0166851D01*
X0053600Y0167449D02*
X0064000Y0167449D01*
X0064000Y0168048D02*
X0053600Y0168048D01*
X0053600Y0168646D02*
X0064000Y0168646D01*
X0064000Y0169245D02*
X0053356Y0169245D01*
X0052758Y0169843D02*
X0064000Y0169843D01*
X0064000Y0170442D02*
X0052159Y0170442D01*
X0051561Y0171040D02*
X0064000Y0171040D01*
X0064000Y0171639D02*
X0050962Y0171639D01*
X0050364Y0172237D02*
X0064000Y0172237D01*
X0064000Y0172836D02*
X0049765Y0172836D01*
X0049400Y0173434D02*
X0064000Y0173434D01*
X0064000Y0174033D02*
X0049400Y0174033D01*
X0049400Y0174631D02*
X0064000Y0174631D01*
X0064000Y0175230D02*
X0049400Y0175230D01*
X0049318Y0175828D02*
X0064000Y0175828D01*
X0063669Y0176427D02*
X0048720Y0176427D01*
X0048121Y0177025D02*
X0063070Y0177025D01*
X0062472Y0177624D02*
X0047523Y0177624D01*
X0043077Y0177624D02*
X0007800Y0177624D01*
X0007800Y0178222D02*
X0061873Y0178222D01*
X0061275Y0178821D02*
X0007800Y0178821D01*
X0007800Y0179419D02*
X0060676Y0179419D01*
X0060078Y0180018D02*
X0007800Y0180018D01*
X0007800Y0180616D02*
X0059479Y0180616D01*
X0058881Y0181215D02*
X0007800Y0181215D01*
X0007800Y0181813D02*
X0058282Y0181813D01*
X0057683Y0182412D02*
X0038696Y0182412D01*
X0039246Y0182640D02*
X0040708Y0184102D01*
X0041500Y0186014D01*
X0041500Y0188082D01*
X0040708Y0189994D01*
X0039246Y0191456D01*
X0037334Y0192248D01*
X0035266Y0192248D01*
X0033354Y0191456D01*
X0031892Y0189994D01*
X0031100Y0188082D01*
X0031100Y0186014D01*
X0031892Y0184102D01*
X0033354Y0182640D01*
X0035266Y0181848D01*
X0037334Y0181848D01*
X0039246Y0182640D01*
X0039616Y0183010D02*
X0057085Y0183010D01*
X0056486Y0183609D02*
X0040215Y0183609D01*
X0040752Y0184207D02*
X0055888Y0184207D01*
X0055289Y0184806D02*
X0041000Y0184806D01*
X0041248Y0185404D02*
X0054691Y0185404D01*
X0054092Y0186003D02*
X0041496Y0186003D01*
X0041500Y0186601D02*
X0053494Y0186601D01*
X0052895Y0187200D02*
X0041500Y0187200D01*
X0041500Y0187798D02*
X0052297Y0187798D01*
X0049153Y0188397D02*
X0041370Y0188397D01*
X0041122Y0188995D02*
X0048554Y0188995D01*
X0047956Y0189594D02*
X0040874Y0189594D01*
X0040509Y0190192D02*
X0047357Y0190192D01*
X0047200Y0190791D02*
X0039911Y0190791D01*
X0039312Y0191390D02*
X0047200Y0191390D01*
X0047200Y0191988D02*
X0037962Y0191988D01*
X0034638Y0191988D02*
X0017072Y0191988D01*
X0016694Y0192048D02*
X0017471Y0191925D01*
X0018219Y0191682D01*
X0018921Y0191324D01*
X0019557Y0190862D01*
X0020114Y0190305D01*
X0020576Y0189669D01*
X0020934Y0188967D01*
X0021177Y0188219D01*
X0021300Y0187442D01*
X0021300Y0187348D01*
X0016600Y0187348D01*
X0016600Y0186748D01*
X0016600Y0182048D01*
X0016694Y0182048D01*
X0017471Y0182171D01*
X0018219Y0182414D01*
X0018921Y0182772D01*
X0019557Y0183234D01*
X0020114Y0183791D01*
X0020576Y0184427D01*
X0020934Y0185129D01*
X0021177Y0185877D01*
X0021300Y0186655D01*
X0021300Y0186748D01*
X0016600Y0186748D01*
X0016000Y0186748D01*
X0016000Y0182048D01*
X0015906Y0182048D01*
X0015129Y0182171D01*
X0014381Y0182414D01*
X0013679Y0182772D01*
X0013043Y0183234D01*
X0012486Y0183791D01*
X0012024Y0184427D01*
X0011666Y0185129D01*
X0011423Y0185877D01*
X0011300Y0186655D01*
X0011300Y0186748D01*
X0016000Y0186748D01*
X0016000Y0187348D01*
X0011300Y0187348D01*
X0011300Y0187442D01*
X0011423Y0188219D01*
X0011666Y0188967D01*
X0012024Y0189669D01*
X0012486Y0190305D01*
X0013043Y0190862D01*
X0013679Y0191324D01*
X0014381Y0191682D01*
X0015129Y0191925D01*
X0015906Y0192048D01*
X0016000Y0192048D01*
X0016000Y0187348D01*
X0016600Y0187348D01*
X0016600Y0192048D01*
X0016694Y0192048D01*
X0016600Y0191988D02*
X0016000Y0191988D01*
X0015528Y0191988D02*
X0007800Y0191988D01*
X0007800Y0191390D02*
X0013807Y0191390D01*
X0012972Y0190791D02*
X0007800Y0190791D01*
X0007800Y0190192D02*
X0012404Y0190192D01*
X0011986Y0189594D02*
X0007800Y0189594D01*
X0007800Y0188995D02*
X0011681Y0188995D01*
X0011481Y0188397D02*
X0007800Y0188397D01*
X0007800Y0187798D02*
X0011357Y0187798D01*
X0011308Y0186601D02*
X0007800Y0186601D01*
X0007800Y0186003D02*
X0011403Y0186003D01*
X0011577Y0185404D02*
X0007800Y0185404D01*
X0007800Y0184806D02*
X0011831Y0184806D01*
X0012183Y0184207D02*
X0007800Y0184207D01*
X0007800Y0183609D02*
X0012668Y0183609D01*
X0013351Y0183010D02*
X0007800Y0183010D01*
X0007800Y0182412D02*
X0014388Y0182412D01*
X0016000Y0182412D02*
X0016600Y0182412D01*
X0016600Y0183010D02*
X0016000Y0183010D01*
X0016000Y0183609D02*
X0016600Y0183609D01*
X0016600Y0184207D02*
X0016000Y0184207D01*
X0016000Y0184806D02*
X0016600Y0184806D01*
X0016600Y0185404D02*
X0016000Y0185404D01*
X0016000Y0186003D02*
X0016600Y0186003D01*
X0016600Y0186601D02*
X0016000Y0186601D01*
X0016000Y0187200D02*
X0007800Y0187200D01*
X0007800Y0192587D02*
X0047200Y0192587D01*
X0047200Y0193185D02*
X0007800Y0193185D01*
X0007800Y0193784D02*
X0047237Y0193784D01*
X0047836Y0194382D02*
X0007800Y0194382D01*
X0007800Y0194981D02*
X0048434Y0194981D01*
X0049033Y0195579D02*
X0007800Y0195579D01*
X0007800Y0196178D02*
X0094200Y0196178D01*
X0094200Y0196746D02*
X0094200Y0193350D01*
X0096602Y0190948D01*
X0099998Y0190948D01*
X0102400Y0193350D01*
X0102400Y0196746D01*
X0099998Y0199148D01*
X0096602Y0199148D01*
X0094200Y0196746D01*
X0094230Y0196776D02*
X0007800Y0196776D01*
X0007800Y0197375D02*
X0094828Y0197375D01*
X0095427Y0197973D02*
X0007800Y0197973D01*
X0007800Y0198572D02*
X0096025Y0198572D01*
X0094200Y0195579D02*
X0083567Y0195579D01*
X0082998Y0196148D02*
X0079602Y0196148D01*
X0077200Y0193746D01*
X0077200Y0190350D01*
X0079602Y0187948D01*
X0082998Y0187948D01*
X0085400Y0190350D01*
X0085400Y0193746D01*
X0082998Y0196148D01*
X0084166Y0194981D02*
X0094200Y0194981D01*
X0094200Y0194382D02*
X0084764Y0194382D01*
X0085363Y0193784D02*
X0094200Y0193784D01*
X0094365Y0193185D02*
X0085400Y0193185D01*
X0085400Y0192587D02*
X0094963Y0192587D01*
X0095562Y0191988D02*
X0085400Y0191988D01*
X0085400Y0191390D02*
X0096160Y0191390D01*
X0100440Y0191390D02*
X0136443Y0191390D01*
X0136685Y0191148D02*
X0138000Y0191148D01*
X0138000Y0194748D01*
X0138600Y0194748D01*
X0138600Y0191148D01*
X0139915Y0191148D01*
X0142200Y0193433D01*
X0142200Y0194748D01*
X0138600Y0194748D01*
X0138600Y0195348D01*
X0142200Y0195348D01*
X0142200Y0196663D01*
X0139915Y0198948D01*
X0138600Y0198948D01*
X0138600Y0195348D01*
X0138000Y0195348D01*
X0138000Y0194748D01*
X0134400Y0194748D01*
X0134400Y0193433D01*
X0136685Y0191148D01*
X0135845Y0191988D02*
X0101038Y0191988D01*
X0101637Y0192587D02*
X0135246Y0192587D01*
X0134648Y0193185D02*
X0102235Y0193185D01*
X0102400Y0193784D02*
X0134400Y0193784D01*
X0134400Y0194382D02*
X0102400Y0194382D01*
X0102400Y0194981D02*
X0138000Y0194981D01*
X0138000Y0195348D02*
X0134400Y0195348D01*
X0134400Y0196663D01*
X0136685Y0198948D01*
X0138000Y0198948D01*
X0138000Y0195348D01*
X0138000Y0195579D02*
X0138600Y0195579D01*
X0138600Y0194981D02*
X0151400Y0194981D01*
X0151400Y0194848D02*
X0155000Y0194848D01*
X0155000Y0194248D01*
X0155600Y0194248D01*
X0155600Y0190648D01*
X0156915Y0190648D01*
X0159200Y0192933D01*
X0159200Y0194248D01*
X0155600Y0194248D01*
X0155600Y0194848D01*
X0159200Y0194848D01*
X0159200Y0196163D01*
X0156915Y0198448D01*
X0155600Y0198448D01*
X0155600Y0194848D01*
X0155000Y0194848D01*
X0155000Y0198448D01*
X0153685Y0198448D01*
X0151400Y0196163D01*
X0151400Y0194848D01*
X0151400Y0194248D02*
X0151400Y0192933D01*
X0153685Y0190648D01*
X0155000Y0190648D01*
X0155000Y0194248D01*
X0151400Y0194248D01*
X0151400Y0193784D02*
X0142200Y0193784D01*
X0142200Y0194382D02*
X0155000Y0194382D01*
X0155000Y0193784D02*
X0155600Y0193784D01*
X0155600Y0194382D02*
X0194138Y0194382D01*
X0193890Y0193784D02*
X0159200Y0193784D01*
X0159200Y0193185D02*
X0193643Y0193185D01*
X0193600Y0192587D02*
X0158854Y0192587D01*
X0158255Y0191988D02*
X0193600Y0191988D01*
X0193600Y0191390D02*
X0157657Y0191390D01*
X0157058Y0190791D02*
X0193692Y0190791D01*
X0193940Y0190192D02*
X0148408Y0190192D01*
X0149007Y0189594D02*
X0194188Y0189594D01*
X0194499Y0188995D02*
X0149605Y0188995D01*
X0150204Y0188397D02*
X0195097Y0188397D01*
X0195696Y0187798D02*
X0150802Y0187798D01*
X0151401Y0187200D02*
X0196916Y0187200D01*
X0196205Y0186601D02*
X0151999Y0186601D01*
X0152598Y0186003D02*
X0195401Y0186003D01*
X0194802Y0185404D02*
X0153196Y0185404D01*
X0153795Y0184806D02*
X0194314Y0184806D01*
X0194066Y0184207D02*
X0154393Y0184207D01*
X0150282Y0181813D02*
X0142200Y0181813D01*
X0142200Y0182412D02*
X0149683Y0182412D01*
X0149085Y0183010D02*
X0141853Y0183010D01*
X0141255Y0183609D02*
X0148486Y0183609D01*
X0147888Y0184207D02*
X0140656Y0184207D01*
X0140058Y0184806D02*
X0147289Y0184806D01*
X0146691Y0185404D02*
X0128381Y0185404D01*
X0128822Y0185838D02*
X0128822Y0185838D01*
X0128990Y0186003D02*
X0146092Y0186003D01*
X0147810Y0190791D02*
X0153542Y0190791D01*
X0152943Y0191390D02*
X0140157Y0191390D01*
X0140755Y0191988D02*
X0152345Y0191988D01*
X0151746Y0192587D02*
X0141354Y0192587D01*
X0141952Y0193185D02*
X0151400Y0193185D01*
X0151400Y0195579D02*
X0142200Y0195579D01*
X0142200Y0196178D02*
X0151414Y0196178D01*
X0152013Y0196776D02*
X0142087Y0196776D01*
X0141489Y0197375D02*
X0152611Y0197375D01*
X0153210Y0197973D02*
X0140890Y0197973D01*
X0140292Y0198572D02*
X0201650Y0198572D01*
X0201650Y0199170D02*
X0007800Y0199170D01*
X0007800Y0199769D02*
X0201650Y0199769D01*
X0201650Y0200367D02*
X0007800Y0200367D01*
X0007800Y0200966D02*
X0201650Y0200966D01*
X0201650Y0201564D02*
X0007800Y0201564D01*
X0007800Y0202163D02*
X0201650Y0202163D01*
X0201650Y0197973D02*
X0157390Y0197973D01*
X0157989Y0197375D02*
X0201650Y0197375D01*
X0201650Y0196776D02*
X0200974Y0196776D01*
X0196626Y0196776D02*
X0158587Y0196776D01*
X0159186Y0196178D02*
X0195576Y0196178D01*
X0194977Y0195579D02*
X0159200Y0195579D01*
X0159200Y0194981D02*
X0194386Y0194981D01*
X0197338Y0177025D02*
X0158621Y0177025D01*
X0158189Y0171639D02*
X0193803Y0171639D01*
X0193897Y0171040D02*
X0157545Y0171040D01*
X0153055Y0171040D02*
X0120545Y0171040D01*
X0121143Y0171639D02*
X0152411Y0171639D01*
X0151819Y0172237D02*
X0121742Y0172237D01*
X0122340Y0172836D02*
X0151571Y0172836D01*
X0151324Y0173434D02*
X0128278Y0173434D01*
X0129229Y0174033D02*
X0151200Y0174033D01*
X0151200Y0174631D02*
X0129732Y0174631D01*
X0129980Y0175230D02*
X0151200Y0175230D01*
X0151392Y0175828D02*
X0130089Y0175828D01*
X0130089Y0176427D02*
X0151640Y0176427D01*
X0151979Y0177025D02*
X0129914Y0177025D01*
X0129666Y0177624D02*
X0136209Y0177624D01*
X0135610Y0178222D02*
X0129070Y0178222D01*
X0126322Y0173434D02*
X0122939Y0173434D01*
X0119946Y0170442D02*
X0194065Y0170442D01*
X0194312Y0169843D02*
X0119348Y0169843D01*
X0118749Y0169245D02*
X0129552Y0169245D01*
X0128954Y0168646D02*
X0118151Y0168646D01*
X0117552Y0168048D02*
X0128695Y0168048D01*
X0128511Y0167449D02*
X0116954Y0167449D01*
X0116355Y0166851D02*
X0128511Y0166851D01*
X0128611Y0166252D02*
X0115757Y0166252D01*
X0115158Y0165654D02*
X0116691Y0165654D01*
X0116378Y0165524D02*
X0115224Y0164370D01*
X0114600Y0162864D01*
X0114600Y0161232D01*
X0115224Y0159726D01*
X0116378Y0158572D01*
X0117884Y0157948D01*
X0124716Y0157948D01*
X0126222Y0158572D01*
X0127376Y0159726D01*
X0128000Y0161232D01*
X0128000Y0162864D01*
X0127376Y0164370D01*
X0126222Y0165524D01*
X0124716Y0166148D01*
X0117884Y0166148D01*
X0116378Y0165524D01*
X0115909Y0165055D02*
X0114560Y0165055D01*
X0113961Y0164457D02*
X0115310Y0164457D01*
X0115012Y0163858D02*
X0113600Y0163858D01*
X0113600Y0163259D02*
X0114764Y0163259D01*
X0114600Y0162661D02*
X0113600Y0162661D01*
X0113600Y0162062D02*
X0114600Y0162062D01*
X0114600Y0161464D02*
X0113600Y0161464D01*
X0113600Y0160865D02*
X0114752Y0160865D01*
X0115000Y0160267D02*
X0113600Y0160267D01*
X0113600Y0159668D02*
X0115281Y0159668D01*
X0115880Y0159070D02*
X0113600Y0159070D01*
X0113600Y0158471D02*
X0116621Y0158471D01*
X0117562Y0155798D02*
X0116853Y0155504D01*
X0116214Y0155077D01*
X0115671Y0154534D01*
X0115244Y0153895D01*
X0114950Y0153186D01*
X0114800Y0152432D01*
X0114800Y0152348D01*
X0121000Y0152348D01*
X0121000Y0151748D01*
X0121600Y0151748D01*
X0121600Y0148148D01*
X0124284Y0148148D01*
X0125038Y0148298D01*
X0125747Y0148592D01*
X0126386Y0149019D01*
X0126929Y0149562D01*
X0127356Y0150201D01*
X0127650Y0150910D01*
X0127800Y0151664D01*
X0127800Y0151748D01*
X0121600Y0151748D01*
X0121600Y0152348D01*
X0127800Y0152348D01*
X0127800Y0152432D01*
X0127650Y0153186D01*
X0127356Y0153895D01*
X0126929Y0154534D01*
X0126386Y0155077D01*
X0125747Y0155504D01*
X0125038Y0155798D01*
X0124284Y0155948D01*
X0121600Y0155948D01*
X0121600Y0152348D01*
X0121000Y0152348D01*
X0121000Y0155948D01*
X0118316Y0155948D01*
X0117562Y0155798D01*
X0116815Y0155479D02*
X0113600Y0155479D01*
X0113600Y0156077D02*
X0128683Y0156077D01*
X0128511Y0156676D02*
X0113600Y0156676D01*
X0113600Y0157274D02*
X0128511Y0157274D01*
X0128623Y0157873D02*
X0113600Y0157873D01*
X0113600Y0154880D02*
X0116017Y0154880D01*
X0115502Y0154282D02*
X0113600Y0154282D01*
X0113600Y0153683D02*
X0115156Y0153683D01*
X0114930Y0153085D02*
X0113600Y0153085D01*
X0113600Y0152486D02*
X0114811Y0152486D01*
X0114800Y0151748D02*
X0114800Y0151664D01*
X0114950Y0150910D01*
X0115244Y0150201D01*
X0115671Y0149562D01*
X0116214Y0149019D01*
X0116853Y0148592D01*
X0117562Y0148298D01*
X0118316Y0148148D01*
X0121000Y0148148D01*
X0121000Y0151748D01*
X0114800Y0151748D01*
X0114875Y0151289D02*
X0113600Y0151289D01*
X0113600Y0150691D02*
X0115041Y0150691D01*
X0115316Y0150092D02*
X0113600Y0150092D01*
X0113600Y0149494D02*
X0115739Y0149494D01*
X0116399Y0148895D02*
X0113600Y0148895D01*
X0113600Y0148297D02*
X0117568Y0148297D01*
X0121000Y0148297D02*
X0121600Y0148297D01*
X0121600Y0148895D02*
X0121000Y0148895D01*
X0121000Y0149494D02*
X0121600Y0149494D01*
X0121600Y0150092D02*
X0121000Y0150092D01*
X0121000Y0150691D02*
X0121600Y0150691D01*
X0121600Y0151289D02*
X0121000Y0151289D01*
X0121000Y0151888D02*
X0113600Y0151888D01*
X0109000Y0151888D02*
X0103600Y0151888D01*
X0103600Y0152486D02*
X0109000Y0152486D01*
X0109000Y0153085D02*
X0103600Y0153085D01*
X0103600Y0153683D02*
X0109000Y0153683D01*
X0109000Y0154282D02*
X0103600Y0154282D01*
X0103600Y0154880D02*
X0109000Y0154880D01*
X0109000Y0155479D02*
X0103600Y0155479D01*
X0103600Y0156077D02*
X0109000Y0156077D01*
X0109000Y0151289D02*
X0103600Y0151289D01*
X0103600Y0150691D02*
X0109000Y0150691D01*
X0109000Y0150092D02*
X0103600Y0150092D01*
X0103600Y0149494D02*
X0109000Y0149494D01*
X0109000Y0148895D02*
X0103600Y0148895D01*
X0103600Y0148297D02*
X0109000Y0148297D01*
X0109000Y0147698D02*
X0103600Y0147698D01*
X0103600Y0147100D02*
X0109000Y0147100D01*
X0109000Y0146501D02*
X0103600Y0146501D01*
X0103600Y0145903D02*
X0109000Y0145903D01*
X0109000Y0145304D02*
X0103600Y0145304D01*
X0103600Y0144706D02*
X0109000Y0144706D01*
X0109000Y0144107D02*
X0103600Y0144107D01*
X0103600Y0143509D02*
X0109000Y0143509D01*
X0109000Y0142910D02*
X0103600Y0142910D01*
X0103600Y0142312D02*
X0109000Y0142312D01*
X0109000Y0141713D02*
X0103600Y0141713D01*
X0103600Y0141115D02*
X0109000Y0141115D01*
X0109000Y0140516D02*
X0103600Y0140516D01*
X0103600Y0139918D02*
X0109000Y0139918D01*
X0109000Y0139319D02*
X0103600Y0139319D01*
X0103600Y0138721D02*
X0109000Y0138721D01*
X0109000Y0138122D02*
X0103600Y0138122D01*
X0103600Y0137523D02*
X0108523Y0137523D01*
X0107924Y0136925D02*
X0103600Y0136925D01*
X0103600Y0136326D02*
X0107326Y0136326D01*
X0106727Y0135728D02*
X0103233Y0135728D01*
X0102634Y0135129D02*
X0106129Y0135129D01*
X0105530Y0134531D02*
X0102036Y0134531D01*
X0101437Y0133932D02*
X0104932Y0133932D01*
X0104333Y0133334D02*
X0100839Y0133334D01*
X0100240Y0132735D02*
X0103735Y0132735D01*
X0103136Y0132137D02*
X0099642Y0132137D01*
X0099043Y0131538D02*
X0102538Y0131538D01*
X0101939Y0130940D02*
X0098445Y0130940D01*
X0097846Y0130341D02*
X0101341Y0130341D01*
X0100742Y0129743D02*
X0097383Y0129743D01*
X0096795Y0129144D02*
X0100144Y0129144D01*
X0099545Y0128546D02*
X0096159Y0128546D01*
X0097750Y0126750D02*
X0068600Y0126750D01*
X0068600Y0126152D02*
X0097151Y0126152D01*
X0096553Y0125553D02*
X0096151Y0125553D01*
X0098348Y0127349D02*
X0068600Y0127349D01*
X0068600Y0127947D02*
X0098947Y0127947D01*
X0102459Y0124955D02*
X0115808Y0124955D01*
X0115218Y0124356D02*
X0101861Y0124356D01*
X0101262Y0123758D02*
X0114970Y0123758D01*
X0114722Y0123159D02*
X0100664Y0123159D01*
X0100065Y0122561D02*
X0114600Y0122561D01*
X0114600Y0121962D02*
X0099467Y0121962D01*
X0098868Y0121364D02*
X0114600Y0121364D01*
X0114794Y0120765D02*
X0098270Y0120765D01*
X0097671Y0120167D02*
X0115041Y0120167D01*
X0115382Y0119568D02*
X0097218Y0119568D01*
X0096620Y0118970D02*
X0115980Y0118970D01*
X0116863Y0118371D02*
X0095737Y0118371D01*
X0087472Y0115977D02*
X0068600Y0115977D01*
X0068600Y0115379D02*
X0086232Y0115379D01*
X0085634Y0114780D02*
X0068600Y0114780D01*
X0068600Y0114182D02*
X0085146Y0114182D01*
X0084898Y0113583D02*
X0068600Y0113583D01*
X0068600Y0112985D02*
X0084650Y0112985D01*
X0084600Y0112386D02*
X0068600Y0112386D01*
X0068600Y0111788D02*
X0084600Y0111788D01*
X0084618Y0111189D02*
X0068600Y0111189D01*
X0068600Y0110590D02*
X0084866Y0110590D01*
X0085114Y0109992D02*
X0068600Y0109992D01*
X0068600Y0109393D02*
X0085556Y0109393D01*
X0086155Y0108795D02*
X0068600Y0108795D01*
X0068600Y0108196D02*
X0087285Y0108196D01*
X0087050Y0105802D02*
X0068600Y0105802D01*
X0068600Y0105204D02*
X0086058Y0105204D01*
X0085459Y0104605D02*
X0068600Y0104605D01*
X0068600Y0104007D02*
X0085074Y0104007D01*
X0084826Y0103408D02*
X0068600Y0103408D01*
X0068600Y0102810D02*
X0084600Y0102810D01*
X0084600Y0102211D02*
X0068600Y0102211D01*
X0068600Y0101613D02*
X0084600Y0101613D01*
X0084690Y0101014D02*
X0068600Y0101014D01*
X0068600Y0100416D02*
X0084938Y0100416D01*
X0085186Y0099817D02*
X0068600Y0099817D01*
X0068600Y0099219D02*
X0085731Y0099219D01*
X0086329Y0098620D02*
X0068600Y0098620D01*
X0068600Y0098022D02*
X0087706Y0098022D01*
X0091000Y0095628D02*
X0091600Y0095628D01*
X0091600Y0095029D02*
X0091000Y0095029D01*
X0091000Y0094431D02*
X0091600Y0094431D01*
X0091600Y0093832D02*
X0091000Y0093832D01*
X0091000Y0093234D02*
X0091600Y0093234D01*
X0091600Y0092635D02*
X0091000Y0092635D01*
X0091000Y0090840D02*
X0091600Y0090840D01*
X0091600Y0090241D02*
X0091000Y0090241D01*
X0091000Y0089643D02*
X0091600Y0089643D01*
X0091600Y0089044D02*
X0091000Y0089044D01*
X0091000Y0088446D02*
X0091600Y0088446D01*
X0074776Y0072286D02*
X0011600Y0072286D01*
X0011600Y0071687D02*
X0011000Y0071687D01*
X0011000Y0071089D02*
X0011600Y0071089D01*
X0011600Y0070490D02*
X0011000Y0070490D01*
X0011000Y0069892D02*
X0011600Y0069892D01*
X0011600Y0069293D02*
X0011000Y0069293D01*
X0011000Y0068695D02*
X0011600Y0068695D01*
X0011600Y0068096D02*
X0011000Y0068096D01*
X0011000Y0067498D02*
X0011600Y0067498D01*
X0013383Y0067498D02*
X0071100Y0067498D01*
X0071106Y0068096D02*
X0014367Y0068096D01*
X0015018Y0068695D02*
X0071354Y0068695D01*
X0071602Y0069293D02*
X0015479Y0069293D01*
X0015813Y0069892D02*
X0071849Y0069892D01*
X0072388Y0070490D02*
X0016051Y0070490D01*
X0016210Y0071089D02*
X0072987Y0071089D01*
X0073912Y0071687D02*
X0016300Y0071687D01*
X0016230Y0072884D02*
X0073524Y0072884D01*
X0072794Y0073483D02*
X0016091Y0073483D01*
X0015876Y0074081D02*
X0072275Y0074081D01*
X0071100Y0066899D02*
X0007800Y0066899D01*
X0007800Y0066301D02*
X0071100Y0066301D01*
X0071229Y0065702D02*
X0007800Y0065702D01*
X0007800Y0065104D02*
X0071477Y0065104D01*
X0071725Y0064505D02*
X0007800Y0064505D01*
X0007800Y0063907D02*
X0072088Y0063907D01*
X0072686Y0063308D02*
X0007800Y0063308D01*
X0007800Y0062710D02*
X0073285Y0062710D01*
X0074631Y0062111D02*
X0007800Y0062111D01*
X0007800Y0061513D02*
X0084600Y0061513D01*
X0084600Y0062111D02*
X0077969Y0062111D01*
X0079315Y0062710D02*
X0084600Y0062710D01*
X0084784Y0063308D02*
X0079914Y0063308D01*
X0080512Y0063907D02*
X0085032Y0063907D01*
X0085359Y0064505D02*
X0080875Y0064505D01*
X0081123Y0065104D02*
X0085957Y0065104D01*
X0086808Y0065702D02*
X0081371Y0065702D01*
X0081500Y0066301D02*
X0169000Y0066301D01*
X0169000Y0066899D02*
X0081500Y0066899D01*
X0084732Y0060914D02*
X0007800Y0060914D01*
X0007800Y0060316D02*
X0084980Y0060316D01*
X0085233Y0059717D02*
X0007800Y0059717D01*
X0007800Y0059119D02*
X0085831Y0059119D01*
X0086504Y0058520D02*
X0007800Y0058520D01*
X0007800Y0057921D02*
X0169000Y0057921D01*
X0169000Y0057323D02*
X0007800Y0057323D01*
X0007800Y0056724D02*
X0169000Y0056724D01*
X0169000Y0056126D02*
X0124769Y0056126D01*
X0126214Y0055527D02*
X0169000Y0055527D01*
X0169000Y0054929D02*
X0126817Y0054929D01*
X0127392Y0054330D02*
X0169000Y0054330D01*
X0169000Y0053732D02*
X0127640Y0053732D01*
X0127888Y0053133D02*
X0169000Y0053133D01*
X0169000Y0052535D02*
X0128000Y0052535D01*
X0128000Y0051936D02*
X0169000Y0051936D01*
X0169000Y0051338D02*
X0128000Y0051338D01*
X0127796Y0050739D02*
X0169000Y0050739D01*
X0169000Y0050141D02*
X0127548Y0050141D01*
X0127193Y0049542D02*
X0169000Y0049542D01*
X0169000Y0048944D02*
X0126594Y0048944D01*
X0125675Y0048345D02*
X0168819Y0048345D01*
X0168571Y0047747D02*
X0007800Y0047747D01*
X0007800Y0048345D02*
X0086925Y0048345D01*
X0086006Y0048944D02*
X0007800Y0048944D01*
X0007800Y0049542D02*
X0085407Y0049542D01*
X0085052Y0050141D02*
X0007800Y0050141D01*
X0007800Y0050739D02*
X0084804Y0050739D01*
X0084600Y0051338D02*
X0007800Y0051338D01*
X0007800Y0051936D02*
X0084600Y0051936D01*
X0084600Y0052535D02*
X0007800Y0052535D01*
X0007800Y0053133D02*
X0084712Y0053133D01*
X0084960Y0053732D02*
X0007800Y0053732D01*
X0007800Y0054330D02*
X0085208Y0054330D01*
X0085783Y0054929D02*
X0007800Y0054929D01*
X0007800Y0055527D02*
X0086386Y0055527D01*
X0087831Y0056126D02*
X0007800Y0056126D01*
X0007800Y0047148D02*
X0168511Y0047148D01*
X0168511Y0046550D02*
X0007800Y0046550D01*
X0007800Y0045951D02*
X0019405Y0045951D01*
X0019602Y0046148D02*
X0017200Y0043746D01*
X0017200Y0040350D01*
X0019602Y0037948D01*
X0022998Y0037948D01*
X0025400Y0040350D01*
X0025400Y0043746D01*
X0022998Y0046148D01*
X0019602Y0046148D01*
X0018806Y0045353D02*
X0007800Y0045353D01*
X0007800Y0044754D02*
X0018208Y0044754D01*
X0017609Y0044156D02*
X0007800Y0044156D01*
X0007800Y0043557D02*
X0017200Y0043557D01*
X0017200Y0042959D02*
X0007800Y0042959D01*
X0007800Y0042360D02*
X0017200Y0042360D01*
X0017200Y0041762D02*
X0007800Y0041762D01*
X0007800Y0041163D02*
X0017200Y0041163D01*
X0017200Y0040565D02*
X0007800Y0040565D01*
X0007800Y0039966D02*
X0017584Y0039966D01*
X0018182Y0039368D02*
X0007800Y0039368D01*
X0007800Y0038769D02*
X0018781Y0038769D01*
X0019379Y0038171D02*
X0007800Y0038171D01*
X0007800Y0025602D02*
X0019056Y0025602D01*
X0019602Y0026148D02*
X0017200Y0023746D01*
X0017200Y0020350D01*
X0019602Y0017948D01*
X0022998Y0017948D01*
X0025400Y0020350D01*
X0025400Y0023746D01*
X0022998Y0026148D01*
X0019602Y0026148D01*
X0018457Y0025003D02*
X0007800Y0025003D01*
X0007800Y0024405D02*
X0017859Y0024405D01*
X0017260Y0023806D02*
X0007800Y0023806D01*
X0007800Y0023208D02*
X0017200Y0023208D01*
X0017200Y0022609D02*
X0007800Y0022609D01*
X0007800Y0022011D02*
X0017200Y0022011D01*
X0017200Y0021412D02*
X0007800Y0021412D01*
X0007800Y0020814D02*
X0017200Y0020814D01*
X0017334Y0020215D02*
X0007800Y0020215D01*
X0007800Y0019617D02*
X0017933Y0019617D01*
X0018531Y0019018D02*
X0007800Y0019018D01*
X0007800Y0018420D02*
X0019130Y0018420D01*
X0023470Y0018420D02*
X0029413Y0018420D01*
X0029685Y0018148D02*
X0027400Y0020433D01*
X0027400Y0021748D01*
X0031000Y0021748D01*
X0031600Y0021748D01*
X0031600Y0018148D01*
X0032915Y0018148D01*
X0035200Y0020433D01*
X0035200Y0021748D01*
X0031600Y0021748D01*
X0031600Y0022348D01*
X0035200Y0022348D01*
X0035200Y0023663D01*
X0032915Y0025948D01*
X0031600Y0025948D01*
X0031600Y0022348D01*
X0031000Y0022348D01*
X0031000Y0021748D01*
X0031000Y0018148D01*
X0029685Y0018148D01*
X0028814Y0019018D02*
X0024068Y0019018D01*
X0024667Y0019617D02*
X0028216Y0019617D01*
X0027617Y0020215D02*
X0025266Y0020215D01*
X0025400Y0020814D02*
X0027400Y0020814D01*
X0027400Y0021412D02*
X0025400Y0021412D01*
X0025400Y0022011D02*
X0031000Y0022011D01*
X0031000Y0022348D02*
X0027400Y0022348D01*
X0027400Y0023663D01*
X0029685Y0025948D01*
X0031000Y0025948D01*
X0031000Y0022348D01*
X0031000Y0022609D02*
X0031600Y0022609D01*
X0031600Y0022011D02*
X0042200Y0022011D01*
X0042200Y0022609D02*
X0035200Y0022609D01*
X0035200Y0023208D02*
X0042200Y0023208D01*
X0042200Y0023746D02*
X0042200Y0020350D01*
X0044602Y0017948D01*
X0047998Y0017948D01*
X0050400Y0020350D01*
X0050400Y0023746D01*
X0047998Y0026148D01*
X0044602Y0026148D01*
X0042200Y0023746D01*
X0042260Y0023806D02*
X0035057Y0023806D01*
X0034459Y0024405D02*
X0042859Y0024405D01*
X0043457Y0025003D02*
X0033860Y0025003D01*
X0033262Y0025602D02*
X0044056Y0025602D01*
X0048544Y0025602D02*
X0054338Y0025602D01*
X0054685Y0025948D02*
X0052400Y0023663D01*
X0052400Y0022348D01*
X0056000Y0022348D01*
X0056000Y0021748D01*
X0056600Y0021748D01*
X0056600Y0018148D01*
X0057915Y0018148D01*
X0060200Y0020433D01*
X0060200Y0021748D01*
X0056600Y0021748D01*
X0056600Y0022348D01*
X0056000Y0022348D01*
X0056000Y0025948D01*
X0054685Y0025948D01*
X0053740Y0025003D02*
X0049143Y0025003D01*
X0049741Y0024405D02*
X0053141Y0024405D01*
X0052543Y0023806D02*
X0050340Y0023806D01*
X0050400Y0023208D02*
X0052400Y0023208D01*
X0052400Y0022609D02*
X0050400Y0022609D01*
X0050400Y0022011D02*
X0056000Y0022011D01*
X0056000Y0021748D02*
X0052400Y0021748D01*
X0052400Y0020433D01*
X0054685Y0018148D01*
X0056000Y0018148D01*
X0056000Y0021748D01*
X0056000Y0021412D02*
X0056600Y0021412D01*
X0056600Y0020814D02*
X0056000Y0020814D01*
X0056000Y0020215D02*
X0056600Y0020215D01*
X0056600Y0019617D02*
X0056000Y0019617D01*
X0056000Y0019018D02*
X0056600Y0019018D01*
X0056600Y0018420D02*
X0056000Y0018420D01*
X0054413Y0018420D02*
X0048470Y0018420D01*
X0049068Y0019018D02*
X0053814Y0019018D01*
X0053216Y0019617D02*
X0049667Y0019617D01*
X0050266Y0020215D02*
X0052617Y0020215D01*
X0052400Y0020814D02*
X0050400Y0020814D01*
X0050400Y0021412D02*
X0052400Y0021412D01*
X0056000Y0022609D02*
X0056600Y0022609D01*
X0056600Y0022011D02*
X0124456Y0022011D01*
X0123858Y0021412D02*
X0060200Y0021412D01*
X0060200Y0020814D02*
X0123583Y0020814D01*
X0123583Y0020215D02*
X0059983Y0020215D01*
X0059384Y0019617D02*
X0123583Y0019617D01*
X0123583Y0019018D02*
X0058786Y0019018D01*
X0058187Y0018420D02*
X0123583Y0018420D01*
X0123583Y0017821D02*
X0007800Y0017821D01*
X0007800Y0017223D02*
X0123583Y0017223D01*
X0123583Y0016624D02*
X0007800Y0016624D01*
X0007800Y0016026D02*
X0123583Y0016026D01*
X0123583Y0015427D02*
X0007800Y0015427D01*
X0007800Y0014829D02*
X0123583Y0014829D01*
X0123583Y0014230D02*
X0007800Y0014230D01*
X0007800Y0013632D02*
X0123910Y0013632D01*
X0126568Y0035178D02*
X0141872Y0035178D01*
X0141273Y0035777D02*
X0125612Y0035777D01*
X0126394Y0045353D02*
X0169051Y0045353D01*
X0168736Y0045951D02*
X0125191Y0045951D01*
X0126096Y0058520D02*
X0169000Y0058520D01*
X0169000Y0059119D02*
X0126769Y0059119D01*
X0127367Y0059717D02*
X0169000Y0059717D01*
X0169000Y0060316D02*
X0127620Y0060316D01*
X0127868Y0060914D02*
X0169000Y0060914D01*
X0169000Y0061513D02*
X0128000Y0061513D01*
X0128000Y0062111D02*
X0169000Y0062111D01*
X0169000Y0062710D02*
X0128000Y0062710D01*
X0127816Y0063308D02*
X0169000Y0063308D01*
X0169000Y0063907D02*
X0127568Y0063907D01*
X0127241Y0064505D02*
X0169000Y0064505D01*
X0169000Y0065104D02*
X0126643Y0065104D01*
X0125792Y0065702D02*
X0169000Y0065702D01*
X0169000Y0068695D02*
X0125901Y0068695D01*
X0126661Y0069293D02*
X0169000Y0069293D01*
X0169000Y0069892D02*
X0127150Y0069892D01*
X0127476Y0070490D02*
X0169000Y0070490D01*
X0169000Y0071089D02*
X0127686Y0071089D01*
X0127800Y0071687D02*
X0169000Y0071687D01*
X0178600Y0071687D02*
X0193800Y0071687D01*
X0193800Y0071655D02*
X0193923Y0070877D01*
X0194166Y0070129D01*
X0194524Y0069427D01*
X0194986Y0068791D01*
X0195543Y0068234D01*
X0196179Y0067772D01*
X0196881Y0067414D01*
X0197629Y0067171D01*
X0198406Y0067048D01*
X0198500Y0067048D01*
X0198500Y0071748D01*
X0199100Y0071748D01*
X0199100Y0067048D01*
X0199194Y0067048D01*
X0199971Y0067171D01*
X0200719Y0067414D01*
X0199100Y0067498D02*
X0198500Y0067498D01*
X0198500Y0068096D02*
X0199100Y0068096D01*
X0199100Y0068695D02*
X0198500Y0068695D01*
X0198500Y0069293D02*
X0199100Y0069293D01*
X0199100Y0069892D02*
X0198500Y0069892D01*
X0198500Y0070490D02*
X0199100Y0070490D01*
X0199100Y0071089D02*
X0198500Y0071089D01*
X0198500Y0071687D02*
X0199100Y0071687D01*
X0198500Y0071748D02*
X0193800Y0071748D01*
X0193800Y0071655D01*
X0193890Y0071089D02*
X0178600Y0071089D01*
X0178600Y0070490D02*
X0194049Y0070490D01*
X0194287Y0069892D02*
X0178600Y0069892D01*
X0178600Y0069293D02*
X0194621Y0069293D01*
X0195082Y0068695D02*
X0178600Y0068695D01*
X0178600Y0068096D02*
X0195733Y0068096D01*
X0196717Y0067498D02*
X0178600Y0067498D01*
X0178600Y0072286D02*
X0198500Y0072286D01*
X0198500Y0072348D02*
X0198500Y0071748D01*
X0198500Y0072348D02*
X0193800Y0072348D01*
X0193800Y0072442D01*
X0193923Y0073219D01*
X0194166Y0073967D01*
X0194524Y0074669D01*
X0194986Y0075305D01*
X0195543Y0075862D01*
X0196179Y0076324D01*
X0196881Y0076682D01*
X0197602Y0076916D01*
X0195854Y0077640D01*
X0194392Y0079102D01*
X0193600Y0081014D01*
X0193600Y0083082D01*
X0194392Y0084994D01*
X0195854Y0086456D01*
X0197283Y0087048D01*
X0195854Y0087640D01*
X0194392Y0089102D01*
X0193600Y0091014D01*
X0193600Y0093082D01*
X0194392Y0094994D01*
X0195854Y0096456D01*
X0197283Y0097048D01*
X0195854Y0097640D01*
X0194392Y0099102D01*
X0193600Y0101014D01*
X0193848Y0100416D02*
X0171185Y0100416D01*
X0171783Y0099817D02*
X0194096Y0099817D01*
X0194343Y0099219D02*
X0172382Y0099219D01*
X0172980Y0098620D02*
X0194874Y0098620D01*
X0195472Y0098022D02*
X0173579Y0098022D01*
X0174177Y0097423D02*
X0196377Y0097423D01*
X0196744Y0096825D02*
X0174776Y0096825D01*
X0175374Y0096226D02*
X0195624Y0096226D01*
X0195026Y0095628D02*
X0175973Y0095628D01*
X0176572Y0095029D02*
X0194427Y0095029D01*
X0194158Y0094431D02*
X0177170Y0094431D01*
X0177769Y0093832D02*
X0193911Y0093832D01*
X0193663Y0093234D02*
X0178367Y0093234D01*
X0178600Y0092635D02*
X0193600Y0092635D01*
X0193600Y0092037D02*
X0178600Y0092037D01*
X0178600Y0091438D02*
X0193600Y0091438D01*
X0193672Y0090840D02*
X0178600Y0090840D01*
X0178600Y0090241D02*
X0193920Y0090241D01*
X0194168Y0089643D02*
X0178600Y0089643D01*
X0178600Y0089044D02*
X0194450Y0089044D01*
X0195049Y0088446D02*
X0178600Y0088446D01*
X0178600Y0087847D02*
X0195647Y0087847D01*
X0196799Y0087249D02*
X0178600Y0087249D01*
X0178600Y0086650D02*
X0196322Y0086650D01*
X0195450Y0086052D02*
X0178600Y0086052D01*
X0178600Y0085453D02*
X0194851Y0085453D01*
X0194334Y0084855D02*
X0178600Y0084855D01*
X0178600Y0084256D02*
X0194086Y0084256D01*
X0193838Y0083657D02*
X0178600Y0083657D01*
X0178600Y0083059D02*
X0193600Y0083059D01*
X0193600Y0082460D02*
X0178600Y0082460D01*
X0178600Y0081862D02*
X0193600Y0081862D01*
X0193600Y0081263D02*
X0178600Y0081263D01*
X0178600Y0080665D02*
X0193744Y0080665D01*
X0193992Y0080066D02*
X0178600Y0080066D01*
X0178600Y0079468D02*
X0194240Y0079468D01*
X0194625Y0078869D02*
X0178600Y0078869D01*
X0178600Y0078271D02*
X0195223Y0078271D01*
X0195822Y0077672D02*
X0178600Y0077672D01*
X0178600Y0077074D02*
X0197220Y0077074D01*
X0196476Y0076475D02*
X0178600Y0076475D01*
X0178600Y0075877D02*
X0195563Y0075877D01*
X0194967Y0075278D02*
X0178600Y0075278D01*
X0178600Y0074680D02*
X0194532Y0074680D01*
X0194224Y0074081D02*
X0178600Y0074081D01*
X0178600Y0073483D02*
X0194009Y0073483D01*
X0193870Y0072884D02*
X0178600Y0072884D01*
X0190619Y0050739D02*
X0201650Y0050739D01*
X0201650Y0050141D02*
X0191633Y0050141D01*
X0192231Y0049542D02*
X0201650Y0049542D01*
X0201650Y0048944D02*
X0192830Y0048944D01*
X0193369Y0048345D02*
X0201650Y0048345D01*
X0201650Y0047747D02*
X0193617Y0047747D01*
X0193865Y0047148D02*
X0201650Y0047148D01*
X0201650Y0046550D02*
X0194113Y0046550D01*
X0194361Y0045951D02*
X0201650Y0045951D01*
X0201650Y0045353D02*
X0194410Y0045353D01*
X0194410Y0044754D02*
X0201650Y0044754D01*
X0201650Y0044156D02*
X0194410Y0044156D01*
X0194410Y0043557D02*
X0201650Y0043557D01*
X0201650Y0042959D02*
X0194392Y0042959D01*
X0194144Y0042360D02*
X0201650Y0042360D01*
X0201650Y0041762D02*
X0193896Y0041762D01*
X0193648Y0041163D02*
X0201650Y0041163D01*
X0201650Y0040565D02*
X0193400Y0040565D01*
X0192903Y0039966D02*
X0201650Y0039966D01*
X0201650Y0039368D02*
X0192305Y0039368D01*
X0191706Y0038769D02*
X0201650Y0038769D01*
X0201650Y0038171D02*
X0190797Y0038171D01*
X0189352Y0037572D02*
X0201650Y0037572D01*
X0201650Y0036974D02*
X0173478Y0036974D01*
X0174531Y0036375D02*
X0201650Y0036375D01*
X0201650Y0035777D02*
X0175129Y0035777D01*
X0175536Y0035178D02*
X0201650Y0035178D01*
X0201650Y0034580D02*
X0175784Y0034580D01*
X0176020Y0033981D02*
X0201650Y0033981D01*
X0201650Y0033383D02*
X0176020Y0033383D01*
X0176020Y0032784D02*
X0201650Y0032784D01*
X0201650Y0032186D02*
X0175937Y0032186D01*
X0176131Y0031587D02*
X0201650Y0031587D01*
X0201650Y0030988D02*
X0176730Y0030988D01*
X0177328Y0030390D02*
X0201650Y0030390D01*
X0201650Y0029791D02*
X0177927Y0029791D01*
X0178220Y0029193D02*
X0201650Y0029193D01*
X0201650Y0028594D02*
X0178220Y0028594D01*
X0178220Y0027996D02*
X0201650Y0027996D01*
X0201650Y0027397D02*
X0178220Y0027397D01*
X0178220Y0026799D02*
X0201650Y0026799D01*
X0201650Y0026200D02*
X0178220Y0026200D01*
X0178220Y0025602D02*
X0201650Y0025602D01*
X0201650Y0025003D02*
X0178220Y0025003D01*
X0178220Y0024405D02*
X0201650Y0024405D01*
X0201650Y0023806D02*
X0177728Y0023806D01*
X0177129Y0023208D02*
X0201650Y0023208D01*
X0201650Y0022609D02*
X0189146Y0022609D01*
X0188714Y0022788D02*
X0185886Y0022788D01*
X0183272Y0021706D01*
X0181272Y0019706D01*
X0180190Y0017092D01*
X0180190Y0014264D01*
X0181272Y0011650D01*
X0183272Y0009650D01*
X0185886Y0008568D01*
X0188714Y0008568D01*
X0191328Y0009650D01*
X0193328Y0011650D01*
X0194410Y0014264D01*
X0194410Y0017092D01*
X0193328Y0019706D01*
X0191328Y0021706D01*
X0188714Y0022788D01*
X0190591Y0022011D02*
X0201650Y0022011D01*
X0201650Y0021412D02*
X0191621Y0021412D01*
X0192220Y0020814D02*
X0201650Y0020814D01*
X0201650Y0020215D02*
X0192818Y0020215D01*
X0193365Y0019617D02*
X0201650Y0019617D01*
X0201650Y0019018D02*
X0193612Y0019018D01*
X0193860Y0018420D02*
X0201650Y0018420D01*
X0201650Y0017821D02*
X0194108Y0017821D01*
X0194356Y0017223D02*
X0201650Y0017223D01*
X0201650Y0016624D02*
X0194410Y0016624D01*
X0194410Y0016026D02*
X0201650Y0016026D01*
X0201650Y0015427D02*
X0194410Y0015427D01*
X0194410Y0014829D02*
X0201650Y0014829D01*
X0201650Y0014230D02*
X0194396Y0014230D01*
X0194148Y0013632D02*
X0201650Y0013632D01*
X0201650Y0013033D02*
X0193901Y0013033D01*
X0193653Y0012435D02*
X0201650Y0012435D01*
X0201650Y0011836D02*
X0193405Y0011836D01*
X0192915Y0011238D02*
X0201650Y0011238D01*
X0201650Y0010639D02*
X0192317Y0010639D01*
X0191718Y0010041D02*
X0201650Y0010041D01*
X0201650Y0009442D02*
X0190825Y0009442D01*
X0189380Y0008844D02*
X0201650Y0008844D01*
X0185220Y0008844D02*
X0007800Y0008844D01*
X0007800Y0009442D02*
X0183775Y0009442D01*
X0182882Y0010041D02*
X0007800Y0010041D01*
X0007800Y0010639D02*
X0182283Y0010639D01*
X0181685Y0011238D02*
X0007800Y0011238D01*
X0007800Y0011836D02*
X0181195Y0011836D01*
X0180947Y0012435D02*
X0007800Y0012435D01*
X0007800Y0013033D02*
X0180699Y0013033D01*
X0180452Y0013632D02*
X0163690Y0013632D01*
X0164017Y0014230D02*
X0180204Y0014230D01*
X0180190Y0014829D02*
X0164017Y0014829D01*
X0164017Y0015427D02*
X0180190Y0015427D01*
X0180190Y0016026D02*
X0164017Y0016026D01*
X0164017Y0016624D02*
X0180190Y0016624D01*
X0180244Y0017223D02*
X0164017Y0017223D01*
X0164017Y0017821D02*
X0164275Y0017821D01*
X0171742Y0017821D02*
X0180492Y0017821D01*
X0180740Y0018420D02*
X0172341Y0018420D01*
X0172939Y0019018D02*
X0180988Y0019018D01*
X0181235Y0019617D02*
X0173538Y0019617D01*
X0174136Y0020215D02*
X0181782Y0020215D01*
X0182380Y0020814D02*
X0174735Y0020814D01*
X0175333Y0021412D02*
X0182979Y0021412D01*
X0184009Y0022011D02*
X0175932Y0022011D01*
X0176530Y0022609D02*
X0185454Y0022609D01*
X0185248Y0037572D02*
X0170908Y0037572D01*
X0170660Y0038171D02*
X0183803Y0038171D01*
X0182894Y0038769D02*
X0170263Y0038769D01*
X0169675Y0039368D02*
X0182295Y0039368D01*
X0181697Y0039966D02*
X0168610Y0039966D01*
X0167521Y0039966D02*
X0166921Y0039966D01*
X0166921Y0039368D02*
X0167521Y0039368D01*
X0167521Y0038769D02*
X0166921Y0038769D01*
X0166921Y0038171D02*
X0167521Y0038171D01*
X0167521Y0037572D02*
X0166921Y0037572D01*
X0166921Y0036974D02*
X0167521Y0036974D01*
X0166921Y0036375D02*
X0156642Y0036375D01*
X0154100Y0036375D02*
X0153500Y0036375D01*
X0153500Y0035777D02*
X0154100Y0035777D01*
X0154100Y0035178D02*
X0153500Y0035178D01*
X0152165Y0033981D02*
X0164142Y0033981D01*
X0164706Y0033383D02*
X0152764Y0033383D01*
X0152900Y0032784D02*
X0164195Y0032784D01*
X0163696Y0032186D02*
X0152900Y0032186D01*
X0152900Y0031587D02*
X0163448Y0031587D01*
X0163200Y0030988D02*
X0152900Y0030988D01*
X0152900Y0030390D02*
X0163146Y0030390D01*
X0163146Y0029791D02*
X0152842Y0029791D01*
X0152243Y0029193D02*
X0163165Y0029193D01*
X0163413Y0028594D02*
X0151645Y0028594D01*
X0151046Y0027996D02*
X0163661Y0027996D01*
X0154100Y0036974D02*
X0153500Y0036974D01*
X0153500Y0037572D02*
X0154100Y0037572D01*
X0154100Y0039368D02*
X0153500Y0039368D01*
X0153500Y0039966D02*
X0154100Y0039966D01*
X0154100Y0040565D02*
X0153500Y0040565D01*
X0153500Y0041163D02*
X0154100Y0041163D01*
X0154100Y0041762D02*
X0153500Y0041762D01*
X0153500Y0042360D02*
X0154100Y0042360D01*
X0156003Y0042360D02*
X0180456Y0042360D01*
X0180704Y0041762D02*
X0156602Y0041762D01*
X0157200Y0041163D02*
X0180952Y0041163D01*
X0181200Y0040565D02*
X0157700Y0040565D01*
X0157700Y0039966D02*
X0165833Y0039966D01*
X0155600Y0077672D02*
X0155000Y0077672D01*
X0155000Y0078271D02*
X0155600Y0078271D01*
X0155600Y0078869D02*
X0155000Y0078869D01*
X0155000Y0079468D02*
X0155600Y0079468D01*
X0155600Y0080066D02*
X0155000Y0080066D01*
X0155000Y0081862D02*
X0155600Y0081862D01*
X0155600Y0082460D02*
X0155000Y0082460D01*
X0155000Y0083059D02*
X0155600Y0083059D01*
X0155600Y0083657D02*
X0155000Y0083657D01*
X0155000Y0084256D02*
X0155600Y0084256D01*
X0155600Y0084855D02*
X0155000Y0084855D01*
X0166475Y0098620D02*
X0126270Y0098620D01*
X0126869Y0099219D02*
X0165877Y0099219D01*
X0169468Y0095628D02*
X0125972Y0095628D01*
X0126717Y0095029D02*
X0170066Y0095029D01*
X0195799Y0106401D02*
X0068600Y0106401D01*
X0068600Y0106999D02*
X0197166Y0106999D01*
X0195955Y0107598D02*
X0068600Y0107598D01*
X0068600Y0116576D02*
X0196142Y0116576D01*
X0196978Y0117174D02*
X0068600Y0117174D01*
X0055490Y0104605D02*
X0015869Y0104605D01*
X0016117Y0104007D02*
X0056088Y0104007D01*
X0056687Y0103408D02*
X0016365Y0103408D01*
X0016500Y0103082D02*
X0016500Y0101014D01*
X0016252Y0100416D02*
X0058988Y0100416D01*
X0059587Y0099817D02*
X0016004Y0099817D01*
X0015498Y0105204D02*
X0054891Y0105204D01*
X0054293Y0105802D02*
X0014900Y0105802D01*
X0014301Y0106401D02*
X0053694Y0106401D01*
X0053096Y0106999D02*
X0012935Y0106999D01*
X0014145Y0107598D02*
X0052497Y0107598D01*
X0051899Y0108196D02*
X0014802Y0108196D01*
X0015401Y0108795D02*
X0051300Y0108795D01*
X0050702Y0109393D02*
X0015829Y0109393D01*
X0016077Y0109992D02*
X0050103Y0109992D01*
X0049505Y0110590D02*
X0016325Y0110590D01*
X0016500Y0111189D02*
X0049000Y0111189D01*
X0049000Y0111788D02*
X0016500Y0111788D01*
X0016500Y0112386D02*
X0049000Y0112386D01*
X0049000Y0112985D02*
X0016500Y0112985D01*
X0016293Y0113583D02*
X0049000Y0113583D01*
X0049000Y0114182D02*
X0016045Y0114182D01*
X0015797Y0114780D02*
X0049000Y0114780D01*
X0049000Y0115379D02*
X0015323Y0115379D01*
X0014725Y0115977D02*
X0049000Y0115977D01*
X0049000Y0116576D02*
X0013958Y0116576D01*
X0013122Y0117174D02*
X0049000Y0117174D01*
X0049000Y0117773D02*
X0014379Y0117773D01*
X0014977Y0118371D02*
X0049000Y0118371D01*
X0049000Y0118970D02*
X0015576Y0118970D01*
X0015901Y0119568D02*
X0049000Y0119568D01*
X0049000Y0120167D02*
X0016149Y0120167D01*
X0016397Y0120765D02*
X0049000Y0120765D01*
X0049000Y0121364D02*
X0016500Y0121364D01*
X0016500Y0121962D02*
X0049000Y0121962D01*
X0049000Y0122561D02*
X0016500Y0122561D01*
X0016468Y0123159D02*
X0049000Y0123159D01*
X0049000Y0123758D02*
X0016220Y0123758D01*
X0015972Y0124356D02*
X0049000Y0124356D01*
X0049000Y0124955D02*
X0015724Y0124955D01*
X0015149Y0125553D02*
X0049000Y0125553D01*
X0049000Y0126152D02*
X0014550Y0126152D01*
X0013536Y0126750D02*
X0049000Y0126750D01*
X0049000Y0127349D02*
X0013543Y0127349D01*
X0014553Y0127947D02*
X0049000Y0127947D01*
X0049000Y0128546D02*
X0015152Y0128546D01*
X0015726Y0129144D02*
X0049000Y0129144D01*
X0049000Y0129743D02*
X0015974Y0129743D01*
X0016222Y0130341D02*
X0049000Y0130341D01*
X0049000Y0130940D02*
X0016469Y0130940D01*
X0016500Y0131538D02*
X0049000Y0131538D01*
X0049000Y0132137D02*
X0016500Y0132137D01*
X0016500Y0132735D02*
X0049000Y0132735D01*
X0049000Y0133334D02*
X0016396Y0133334D01*
X0016148Y0133932D02*
X0049000Y0133932D01*
X0049000Y0134531D02*
X0015900Y0134531D01*
X0015572Y0135129D02*
X0049000Y0135129D01*
X0049000Y0135728D02*
X0014974Y0135728D01*
X0014375Y0136326D02*
X0049000Y0136326D01*
X0049000Y0136925D02*
X0013114Y0136925D01*
X0013965Y0137523D02*
X0049000Y0137523D01*
X0049000Y0138122D02*
X0014728Y0138122D01*
X0015326Y0138721D02*
X0049000Y0138721D01*
X0049000Y0139319D02*
X0015798Y0139319D01*
X0016046Y0139918D02*
X0049000Y0139918D01*
X0049000Y0140516D02*
X0016294Y0140516D01*
X0016500Y0141115D02*
X0049000Y0141115D01*
X0049000Y0141713D02*
X0016500Y0141713D01*
X0016500Y0142312D02*
X0049000Y0142312D01*
X0049000Y0142910D02*
X0016500Y0142910D01*
X0016323Y0143509D02*
X0049000Y0143509D01*
X0049000Y0144107D02*
X0016076Y0144107D01*
X0015828Y0144706D02*
X0049000Y0144706D01*
X0049000Y0145304D02*
X0015398Y0145304D01*
X0014799Y0145903D02*
X0049000Y0145903D01*
X0049000Y0146501D02*
X0014137Y0146501D01*
X0012692Y0147100D02*
X0049000Y0147100D01*
X0049000Y0147698D02*
X0007800Y0147698D01*
X0007800Y0147100D02*
X0009908Y0147100D01*
X0008463Y0146501D02*
X0007800Y0146501D01*
X0007800Y0145903D02*
X0007801Y0145903D01*
X0007800Y0148297D02*
X0049000Y0148297D01*
X0049000Y0148895D02*
X0007800Y0148895D01*
X0007800Y0149494D02*
X0049000Y0149494D01*
X0049000Y0150092D02*
X0007800Y0150092D01*
X0007800Y0150691D02*
X0049000Y0150691D01*
X0049000Y0151289D02*
X0007800Y0151289D01*
X0007800Y0151888D02*
X0049000Y0151888D01*
X0049000Y0152486D02*
X0007800Y0152486D01*
X0007800Y0153085D02*
X0049000Y0153085D01*
X0049000Y0153683D02*
X0007800Y0153683D01*
X0007800Y0154282D02*
X0049000Y0154282D01*
X0049000Y0154880D02*
X0007800Y0154880D01*
X0007800Y0155479D02*
X0049000Y0155479D01*
X0049000Y0156077D02*
X0007800Y0156077D01*
X0007800Y0156676D02*
X0049000Y0156676D01*
X0049000Y0157274D02*
X0038364Y0157274D01*
X0039246Y0157640D02*
X0040708Y0159102D01*
X0041500Y0161014D01*
X0041500Y0163082D01*
X0040708Y0164994D01*
X0039246Y0166456D01*
X0037334Y0167248D01*
X0035266Y0167248D01*
X0033354Y0166456D01*
X0031892Y0164994D01*
X0031100Y0163082D01*
X0031100Y0161014D01*
X0031892Y0159102D01*
X0033354Y0157640D01*
X0035266Y0156848D01*
X0037334Y0156848D01*
X0039246Y0157640D01*
X0039479Y0157873D02*
X0049000Y0157873D01*
X0049000Y0158471D02*
X0040077Y0158471D01*
X0040676Y0159070D02*
X0049000Y0159070D01*
X0049000Y0159668D02*
X0040943Y0159668D01*
X0041191Y0160267D02*
X0049000Y0160267D01*
X0049000Y0160865D02*
X0041439Y0160865D01*
X0041500Y0161464D02*
X0049000Y0161464D01*
X0049000Y0162062D02*
X0041500Y0162062D01*
X0041500Y0162661D02*
X0049000Y0162661D01*
X0049000Y0163259D02*
X0041427Y0163259D01*
X0041179Y0163858D02*
X0049000Y0163858D01*
X0049000Y0164457D02*
X0040931Y0164457D01*
X0040647Y0165055D02*
X0049000Y0165055D01*
X0049000Y0165654D02*
X0040048Y0165654D01*
X0039450Y0166252D02*
X0049000Y0166252D01*
X0049000Y0166851D02*
X0038294Y0166851D01*
X0034306Y0166851D02*
X0017700Y0166851D01*
X0017471Y0166925D02*
X0016694Y0167048D01*
X0016600Y0167048D01*
X0016600Y0162348D01*
X0021300Y0162348D01*
X0021300Y0162442D01*
X0021177Y0163219D01*
X0020934Y0163967D01*
X0020576Y0164669D01*
X0020114Y0165305D01*
X0019557Y0165862D01*
X0018921Y0166324D01*
X0018219Y0166682D01*
X0017471Y0166925D01*
X0016600Y0166851D02*
X0016000Y0166851D01*
X0016000Y0167048D02*
X0015906Y0167048D01*
X0015129Y0166925D01*
X0014381Y0166682D01*
X0013679Y0166324D01*
X0013043Y0165862D01*
X0012486Y0165305D01*
X0012024Y0164669D01*
X0011666Y0163967D01*
X0011423Y0163219D01*
X0011300Y0162442D01*
X0011300Y0162348D01*
X0016000Y0162348D01*
X0016000Y0161748D01*
X0016600Y0161748D01*
X0016600Y0157048D01*
X0016694Y0157048D01*
X0017471Y0157171D01*
X0018219Y0157414D01*
X0018921Y0157772D01*
X0019557Y0158234D01*
X0020114Y0158791D01*
X0020576Y0159427D01*
X0020934Y0160129D01*
X0021177Y0160877D01*
X0021300Y0161655D01*
X0021300Y0161748D01*
X0016600Y0161748D01*
X0016600Y0162348D01*
X0016000Y0162348D01*
X0016000Y0167048D01*
X0016000Y0166252D02*
X0016600Y0166252D01*
X0016600Y0165654D02*
X0016000Y0165654D01*
X0016000Y0165055D02*
X0016600Y0165055D01*
X0016600Y0164457D02*
X0016000Y0164457D01*
X0016000Y0163858D02*
X0016600Y0163858D01*
X0016600Y0163259D02*
X0016000Y0163259D01*
X0016000Y0162661D02*
X0016600Y0162661D01*
X0016600Y0162062D02*
X0031100Y0162062D01*
X0031100Y0161464D02*
X0021270Y0161464D01*
X0021173Y0160865D02*
X0031161Y0160865D01*
X0031409Y0160267D02*
X0020979Y0160267D01*
X0020699Y0159668D02*
X0031657Y0159668D01*
X0031924Y0159070D02*
X0020317Y0159070D01*
X0019794Y0158471D02*
X0032523Y0158471D01*
X0033121Y0157873D02*
X0019060Y0157873D01*
X0017789Y0157274D02*
X0034236Y0157274D01*
X0031100Y0162661D02*
X0021265Y0162661D01*
X0021164Y0163259D02*
X0031173Y0163259D01*
X0031421Y0163858D02*
X0020969Y0163858D01*
X0020684Y0164457D02*
X0031669Y0164457D01*
X0031953Y0165055D02*
X0020296Y0165055D01*
X0019766Y0165654D02*
X0032552Y0165654D01*
X0033150Y0166252D02*
X0019020Y0166252D01*
X0014900Y0166851D02*
X0007800Y0166851D01*
X0007800Y0167449D02*
X0048646Y0167449D01*
X0048048Y0168048D02*
X0007800Y0168048D01*
X0007800Y0168646D02*
X0047449Y0168646D01*
X0046851Y0169245D02*
X0007800Y0169245D01*
X0007800Y0169843D02*
X0046252Y0169843D01*
X0043108Y0170442D02*
X0007800Y0170442D01*
X0007800Y0171040D02*
X0042510Y0171040D01*
X0041911Y0171639D02*
X0007800Y0171639D01*
X0007800Y0172237D02*
X0041313Y0172237D01*
X0041200Y0172836D02*
X0007800Y0172836D01*
X0007800Y0173434D02*
X0041200Y0173434D01*
X0041200Y0174033D02*
X0007800Y0174033D01*
X0007800Y0174631D02*
X0041200Y0174631D01*
X0041200Y0175230D02*
X0007800Y0175230D01*
X0007800Y0175828D02*
X0041282Y0175828D01*
X0041880Y0176427D02*
X0007800Y0176427D01*
X0007800Y0177025D02*
X0042479Y0177025D01*
X0033904Y0182412D02*
X0018212Y0182412D01*
X0019249Y0183010D02*
X0032984Y0183010D01*
X0032385Y0183609D02*
X0019932Y0183609D01*
X0020416Y0184207D02*
X0031848Y0184207D01*
X0031600Y0184806D02*
X0020769Y0184806D01*
X0021023Y0185404D02*
X0031352Y0185404D01*
X0031104Y0186003D02*
X0021197Y0186003D01*
X0021292Y0186601D02*
X0031100Y0186601D01*
X0031100Y0187200D02*
X0016600Y0187200D01*
X0016600Y0187798D02*
X0016000Y0187798D01*
X0016000Y0188397D02*
X0016600Y0188397D01*
X0016600Y0188995D02*
X0016000Y0188995D01*
X0016000Y0189594D02*
X0016600Y0189594D01*
X0016600Y0190192D02*
X0016000Y0190192D01*
X0016000Y0190791D02*
X0016600Y0190791D01*
X0016600Y0191390D02*
X0016000Y0191390D01*
X0018793Y0191390D02*
X0033288Y0191390D01*
X0032689Y0190791D02*
X0019628Y0190791D01*
X0020196Y0190192D02*
X0032091Y0190192D01*
X0031726Y0189594D02*
X0020614Y0189594D01*
X0020919Y0188995D02*
X0031478Y0188995D01*
X0031230Y0188397D02*
X0021119Y0188397D01*
X0021243Y0187798D02*
X0031100Y0187798D01*
X0013580Y0166252D02*
X0007800Y0166252D01*
X0007800Y0165654D02*
X0012834Y0165654D01*
X0012304Y0165055D02*
X0007800Y0165055D01*
X0007800Y0164457D02*
X0011916Y0164457D01*
X0011631Y0163858D02*
X0007800Y0163858D01*
X0007800Y0163259D02*
X0011436Y0163259D01*
X0011335Y0162661D02*
X0007800Y0162661D01*
X0007800Y0162062D02*
X0016000Y0162062D01*
X0016000Y0161748D02*
X0011300Y0161748D01*
X0011300Y0161655D01*
X0011423Y0160877D01*
X0011666Y0160129D01*
X0012024Y0159427D01*
X0012486Y0158791D01*
X0013043Y0158234D01*
X0013679Y0157772D01*
X0014381Y0157414D01*
X0015129Y0157171D01*
X0015906Y0157048D01*
X0016000Y0157048D01*
X0016000Y0161748D01*
X0016000Y0161464D02*
X0016600Y0161464D01*
X0016600Y0160865D02*
X0016000Y0160865D01*
X0016000Y0160267D02*
X0016600Y0160267D01*
X0016600Y0159668D02*
X0016000Y0159668D01*
X0016000Y0159070D02*
X0016600Y0159070D01*
X0016600Y0158471D02*
X0016000Y0158471D01*
X0016000Y0157873D02*
X0016600Y0157873D01*
X0016600Y0157274D02*
X0016000Y0157274D01*
X0014811Y0157274D02*
X0007800Y0157274D01*
X0007800Y0157873D02*
X0013540Y0157873D01*
X0012806Y0158471D02*
X0007800Y0158471D01*
X0007800Y0159070D02*
X0012283Y0159070D01*
X0011901Y0159668D02*
X0007800Y0159668D01*
X0007800Y0160267D02*
X0011621Y0160267D01*
X0011427Y0160865D02*
X0007800Y0160865D01*
X0007800Y0161464D02*
X0011330Y0161464D01*
X0068600Y0156077D02*
X0087714Y0156077D01*
X0086333Y0155479D02*
X0068600Y0155479D01*
X0068600Y0154880D02*
X0085734Y0154880D01*
X0085187Y0154282D02*
X0068600Y0154282D01*
X0068600Y0153683D02*
X0084940Y0153683D01*
X0084692Y0153085D02*
X0068600Y0153085D01*
X0068600Y0152486D02*
X0084600Y0152486D01*
X0084600Y0151888D02*
X0068600Y0151888D01*
X0068600Y0151289D02*
X0084600Y0151289D01*
X0084824Y0150691D02*
X0068600Y0150691D01*
X0068600Y0150092D02*
X0085072Y0150092D01*
X0085456Y0149494D02*
X0068600Y0149494D01*
X0068600Y0148895D02*
X0086055Y0148895D01*
X0087043Y0148297D02*
X0068600Y0148297D01*
X0068600Y0147698D02*
X0099000Y0147698D01*
X0099000Y0147100D02*
X0068600Y0147100D01*
X0068600Y0146501D02*
X0099000Y0146501D01*
X0098523Y0137523D02*
X0068600Y0137523D01*
X0068600Y0136925D02*
X0097924Y0136925D01*
X0106050Y0128546D02*
X0116441Y0128546D01*
X0115805Y0129144D02*
X0106649Y0129144D01*
X0107247Y0129743D02*
X0115217Y0129743D01*
X0114969Y0130341D02*
X0107846Y0130341D01*
X0108445Y0130940D02*
X0114721Y0130940D01*
X0114600Y0131538D02*
X0109043Y0131538D01*
X0109642Y0132137D02*
X0114600Y0132137D01*
X0114600Y0132735D02*
X0110240Y0132735D01*
X0110839Y0133334D02*
X0114795Y0133334D01*
X0115043Y0133932D02*
X0111437Y0133932D01*
X0112036Y0134531D02*
X0115385Y0134531D01*
X0115983Y0135129D02*
X0112634Y0135129D01*
X0113233Y0135728D02*
X0116870Y0135728D01*
X0116449Y0125553D02*
X0103058Y0125553D01*
X0103656Y0126152D02*
X0195550Y0126152D01*
X0196564Y0126750D02*
X0104255Y0126750D01*
X0104853Y0127349D02*
X0196557Y0127349D01*
X0195547Y0127947D02*
X0105452Y0127947D01*
X0087464Y0138122D02*
X0068600Y0138122D01*
X0068600Y0138721D02*
X0086229Y0138721D01*
X0085631Y0139319D02*
X0068600Y0139319D01*
X0068600Y0139918D02*
X0085145Y0139918D01*
X0084897Y0140516D02*
X0068600Y0140516D01*
X0068600Y0141115D02*
X0084649Y0141115D01*
X0084600Y0141713D02*
X0068600Y0141713D01*
X0068600Y0142312D02*
X0084600Y0142312D01*
X0084619Y0142910D02*
X0068600Y0142910D01*
X0068600Y0143509D02*
X0084867Y0143509D01*
X0085115Y0144107D02*
X0068600Y0144107D01*
X0068600Y0144706D02*
X0085559Y0144706D01*
X0086158Y0145304D02*
X0068600Y0145304D01*
X0068600Y0145903D02*
X0087292Y0145903D01*
X0087492Y0170442D02*
X0091441Y0170442D01*
X0092039Y0171040D02*
X0088090Y0171040D01*
X0088689Y0171639D02*
X0092638Y0171639D01*
X0093236Y0172237D02*
X0089287Y0172237D01*
X0089400Y0172836D02*
X0093835Y0172836D01*
X0094433Y0173434D02*
X0089400Y0173434D01*
X0089400Y0174033D02*
X0095032Y0174033D01*
X0096525Y0177025D02*
X0088121Y0177025D01*
X0095063Y0183609D02*
X0072992Y0183609D01*
X0072393Y0184207D02*
X0095661Y0184207D01*
X0096260Y0184806D02*
X0071795Y0184806D01*
X0073447Y0188397D02*
X0079153Y0188397D01*
X0078554Y0188995D02*
X0074046Y0188995D01*
X0074644Y0189594D02*
X0077956Y0189594D01*
X0077357Y0190192D02*
X0075243Y0190192D01*
X0075400Y0190791D02*
X0077200Y0190791D01*
X0077200Y0191390D02*
X0075400Y0191390D01*
X0075400Y0191988D02*
X0077200Y0191988D01*
X0077200Y0192587D02*
X0075400Y0192587D01*
X0075400Y0193185D02*
X0077200Y0193185D01*
X0077237Y0193784D02*
X0075363Y0193784D01*
X0074764Y0194382D02*
X0077836Y0194382D01*
X0078434Y0194981D02*
X0074166Y0194981D01*
X0073567Y0195579D02*
X0079033Y0195579D01*
X0085400Y0190791D02*
X0127258Y0190791D01*
X0126659Y0190192D02*
X0085243Y0190192D01*
X0084644Y0189594D02*
X0126061Y0189594D01*
X0125462Y0188995D02*
X0084046Y0188995D01*
X0083447Y0188397D02*
X0124863Y0188397D01*
X0127778Y0184806D02*
X0136542Y0184806D01*
X0135944Y0184207D02*
X0127161Y0184207D01*
X0126551Y0183609D02*
X0135345Y0183609D01*
X0134747Y0183010D02*
X0125941Y0183010D01*
X0125332Y0182412D02*
X0134400Y0182412D01*
X0134400Y0181813D02*
X0124722Y0181813D01*
X0138000Y0182412D02*
X0138600Y0182412D01*
X0138600Y0183010D02*
X0138000Y0183010D01*
X0138000Y0183609D02*
X0138600Y0183609D01*
X0138600Y0184207D02*
X0138000Y0184207D01*
X0138000Y0184806D02*
X0138600Y0184806D01*
X0138600Y0180616D02*
X0138000Y0180616D01*
X0138000Y0180018D02*
X0138600Y0180018D01*
X0138600Y0179419D02*
X0138000Y0179419D01*
X0138000Y0178821D02*
X0138600Y0178821D01*
X0138600Y0178222D02*
X0138000Y0178222D01*
X0138000Y0177624D02*
X0138600Y0177624D01*
X0140391Y0177624D02*
X0152577Y0177624D01*
X0153457Y0178222D02*
X0140990Y0178222D01*
X0138600Y0191390D02*
X0138000Y0191390D01*
X0138000Y0191988D02*
X0138600Y0191988D01*
X0138600Y0192587D02*
X0138000Y0192587D01*
X0138000Y0193185D02*
X0138600Y0193185D01*
X0138600Y0193784D02*
X0138000Y0193784D01*
X0138000Y0194382D02*
X0138600Y0194382D01*
X0138600Y0196178D02*
X0138000Y0196178D01*
X0138000Y0196776D02*
X0138600Y0196776D01*
X0138600Y0197375D02*
X0138000Y0197375D01*
X0138000Y0197973D02*
X0138600Y0197973D01*
X0138600Y0198572D02*
X0138000Y0198572D01*
X0136308Y0198572D02*
X0100575Y0198572D01*
X0101173Y0197973D02*
X0135710Y0197973D01*
X0135111Y0197375D02*
X0101772Y0197375D01*
X0102370Y0196776D02*
X0134513Y0196776D01*
X0134400Y0196178D02*
X0102400Y0196178D01*
X0102400Y0195579D02*
X0134400Y0195579D01*
X0155000Y0195579D02*
X0155600Y0195579D01*
X0155600Y0194981D02*
X0155000Y0194981D01*
X0155000Y0196178D02*
X0155600Y0196178D01*
X0155600Y0196776D02*
X0155000Y0196776D01*
X0155000Y0197375D02*
X0155600Y0197375D01*
X0155600Y0197973D02*
X0155000Y0197973D01*
X0155000Y0193185D02*
X0155600Y0193185D01*
X0155600Y0192587D02*
X0155000Y0192587D01*
X0155000Y0191988D02*
X0155600Y0191988D01*
X0155600Y0191390D02*
X0155000Y0191390D01*
X0155000Y0190791D02*
X0155600Y0190791D01*
X0129000Y0165055D02*
X0126691Y0165055D01*
X0127290Y0164457D02*
X0129000Y0164457D01*
X0129000Y0163858D02*
X0127588Y0163858D01*
X0127836Y0163259D02*
X0129000Y0163259D01*
X0129000Y0162661D02*
X0128000Y0162661D01*
X0128000Y0162062D02*
X0129000Y0162062D01*
X0129000Y0161464D02*
X0128000Y0161464D01*
X0127848Y0160865D02*
X0129000Y0160865D01*
X0129000Y0160267D02*
X0127600Y0160267D01*
X0127319Y0159668D02*
X0129000Y0159668D01*
X0129000Y0159070D02*
X0126720Y0159070D01*
X0125979Y0158471D02*
X0128871Y0158471D01*
X0128931Y0155479D02*
X0125785Y0155479D01*
X0126583Y0154880D02*
X0129523Y0154880D01*
X0130690Y0154282D02*
X0127098Y0154282D01*
X0127444Y0153683D02*
X0137200Y0153683D01*
X0137200Y0153746D02*
X0137200Y0150350D01*
X0139602Y0147948D01*
X0142998Y0147948D01*
X0145400Y0150350D01*
X0145400Y0153746D01*
X0142998Y0156148D01*
X0139602Y0156148D01*
X0137200Y0153746D01*
X0137200Y0153085D02*
X0127670Y0153085D01*
X0127789Y0152486D02*
X0137200Y0152486D01*
X0137200Y0151888D02*
X0121600Y0151888D01*
X0121600Y0152486D02*
X0121000Y0152486D01*
X0121000Y0153085D02*
X0121600Y0153085D01*
X0121600Y0153683D02*
X0121000Y0153683D01*
X0121000Y0154282D02*
X0121600Y0154282D01*
X0121600Y0154880D02*
X0121000Y0154880D01*
X0121000Y0155479D02*
X0121600Y0155479D01*
X0127725Y0151289D02*
X0137200Y0151289D01*
X0137200Y0150691D02*
X0127559Y0150691D01*
X0127284Y0150092D02*
X0137458Y0150092D01*
X0138056Y0149494D02*
X0126861Y0149494D01*
X0126201Y0148895D02*
X0138655Y0148895D01*
X0139253Y0148297D02*
X0125032Y0148297D01*
X0131910Y0154282D02*
X0137736Y0154282D01*
X0138334Y0154880D02*
X0133077Y0154880D01*
X0133669Y0155479D02*
X0138933Y0155479D01*
X0139531Y0156077D02*
X0133917Y0156077D01*
X0143069Y0156077D02*
X0179531Y0156077D01*
X0178933Y0155479D02*
X0143667Y0155479D01*
X0144266Y0154880D02*
X0178334Y0154880D01*
X0177736Y0154282D02*
X0144864Y0154282D01*
X0145400Y0153683D02*
X0177200Y0153683D01*
X0177200Y0153085D02*
X0145400Y0153085D01*
X0145400Y0152486D02*
X0177200Y0152486D01*
X0177200Y0151888D02*
X0145400Y0151888D01*
X0145400Y0151289D02*
X0177200Y0151289D01*
X0177200Y0150691D02*
X0145400Y0150691D01*
X0145142Y0150092D02*
X0177458Y0150092D01*
X0178056Y0149494D02*
X0144544Y0149494D01*
X0143945Y0148895D02*
X0178655Y0148895D01*
X0179253Y0148297D02*
X0143347Y0148297D01*
X0128859Y0165654D02*
X0125909Y0165654D01*
X0121600Y0075877D02*
X0121000Y0075877D01*
X0121000Y0075278D02*
X0121600Y0075278D01*
X0121600Y0074680D02*
X0121000Y0074680D01*
X0121000Y0074081D02*
X0121600Y0074081D01*
X0121600Y0073483D02*
X0121000Y0073483D01*
X0121000Y0071687D02*
X0121600Y0071687D01*
X0121600Y0071089D02*
X0121000Y0071089D01*
X0121000Y0070490D02*
X0121600Y0070490D01*
X0121600Y0069892D02*
X0121000Y0069892D01*
X0121000Y0069293D02*
X0121600Y0069293D01*
X0121600Y0068695D02*
X0121000Y0068695D01*
X0087409Y0045951D02*
X0048195Y0045951D01*
X0047998Y0046148D02*
X0044602Y0046148D01*
X0042200Y0043746D01*
X0042200Y0040350D01*
X0044602Y0037948D01*
X0047998Y0037948D01*
X0050400Y0040350D01*
X0050400Y0043746D01*
X0047998Y0046148D01*
X0048794Y0045353D02*
X0054089Y0045353D01*
X0054685Y0045948D02*
X0052400Y0043663D01*
X0052400Y0042348D01*
X0056000Y0042348D01*
X0056000Y0041748D01*
X0056600Y0041748D01*
X0056600Y0038148D01*
X0057915Y0038148D01*
X0060200Y0040433D01*
X0060200Y0041748D01*
X0056600Y0041748D01*
X0056600Y0042348D01*
X0060200Y0042348D01*
X0060200Y0043663D01*
X0057915Y0045948D01*
X0056600Y0045948D01*
X0056600Y0042348D01*
X0056000Y0042348D01*
X0056000Y0045948D01*
X0054685Y0045948D01*
X0056000Y0045353D02*
X0056600Y0045353D01*
X0056600Y0044754D02*
X0056000Y0044754D01*
X0056000Y0044156D02*
X0056600Y0044156D01*
X0056600Y0043557D02*
X0056000Y0043557D01*
X0056000Y0042959D02*
X0056600Y0042959D01*
X0056600Y0042360D02*
X0056000Y0042360D01*
X0056000Y0041762D02*
X0050400Y0041762D01*
X0050400Y0042360D02*
X0052400Y0042360D01*
X0052400Y0042959D02*
X0050400Y0042959D01*
X0050400Y0043557D02*
X0052400Y0043557D01*
X0052892Y0044156D02*
X0049991Y0044156D01*
X0049392Y0044754D02*
X0053491Y0044754D01*
X0052400Y0041748D02*
X0052400Y0040433D01*
X0054685Y0038148D01*
X0056000Y0038148D01*
X0056000Y0041748D01*
X0052400Y0041748D01*
X0052400Y0041163D02*
X0050400Y0041163D01*
X0050400Y0040565D02*
X0052400Y0040565D01*
X0052866Y0039966D02*
X0050016Y0039966D01*
X0049418Y0039368D02*
X0053465Y0039368D01*
X0054063Y0038769D02*
X0048819Y0038769D01*
X0048221Y0038171D02*
X0054662Y0038171D01*
X0056000Y0038171D02*
X0056600Y0038171D01*
X0056600Y0038769D02*
X0056000Y0038769D01*
X0056000Y0039368D02*
X0056600Y0039368D01*
X0056600Y0039966D02*
X0056000Y0039966D01*
X0056000Y0040565D02*
X0056600Y0040565D01*
X0056600Y0041163D02*
X0056000Y0041163D01*
X0056600Y0041762D02*
X0084600Y0041762D01*
X0084600Y0042360D02*
X0060200Y0042360D01*
X0060200Y0042959D02*
X0084639Y0042959D01*
X0084887Y0043557D02*
X0060200Y0043557D01*
X0059708Y0044156D02*
X0085135Y0044156D01*
X0085608Y0044754D02*
X0059109Y0044754D01*
X0058511Y0045353D02*
X0086206Y0045353D01*
X0084629Y0041163D02*
X0060200Y0041163D01*
X0060200Y0040565D02*
X0084877Y0040565D01*
X0085125Y0039966D02*
X0059734Y0039966D01*
X0059135Y0039368D02*
X0085582Y0039368D01*
X0086181Y0038769D02*
X0058537Y0038769D01*
X0057938Y0038171D02*
X0087347Y0038171D01*
X0056600Y0025602D02*
X0056000Y0025602D01*
X0056000Y0025003D02*
X0056600Y0025003D01*
X0056600Y0024405D02*
X0056000Y0024405D01*
X0056000Y0023806D02*
X0056600Y0023806D01*
X0056600Y0023208D02*
X0056000Y0023208D01*
X0044130Y0018420D02*
X0033187Y0018420D01*
X0033786Y0019018D02*
X0043531Y0019018D01*
X0042933Y0019617D02*
X0034384Y0019617D01*
X0034983Y0020215D02*
X0042334Y0020215D01*
X0042200Y0020814D02*
X0035200Y0020814D01*
X0035200Y0021412D02*
X0042200Y0021412D01*
X0031600Y0021412D02*
X0031000Y0021412D01*
X0031000Y0020814D02*
X0031600Y0020814D01*
X0031600Y0020215D02*
X0031000Y0020215D01*
X0031000Y0019617D02*
X0031600Y0019617D01*
X0031600Y0019018D02*
X0031000Y0019018D01*
X0031000Y0018420D02*
X0031600Y0018420D01*
X0027400Y0022609D02*
X0025400Y0022609D01*
X0025400Y0023208D02*
X0027400Y0023208D01*
X0027543Y0023806D02*
X0025340Y0023806D01*
X0024741Y0024405D02*
X0028141Y0024405D01*
X0028740Y0025003D02*
X0024143Y0025003D01*
X0023544Y0025602D02*
X0029338Y0025602D01*
X0031000Y0025602D02*
X0031600Y0025602D01*
X0031600Y0025003D02*
X0031000Y0025003D01*
X0031000Y0024405D02*
X0031600Y0024405D01*
X0031600Y0023806D02*
X0031000Y0023806D01*
X0031000Y0023208D02*
X0031600Y0023208D01*
X0031600Y0038148D02*
X0032915Y0038148D01*
X0035200Y0040433D01*
X0035200Y0041748D01*
X0031600Y0041748D01*
X0031600Y0038148D01*
X0031600Y0038171D02*
X0031000Y0038171D01*
X0031000Y0038148D02*
X0031000Y0041748D01*
X0031600Y0041748D01*
X0031600Y0042348D01*
X0035200Y0042348D01*
X0035200Y0043663D01*
X0032915Y0045948D01*
X0031600Y0045948D01*
X0031600Y0042348D01*
X0031000Y0042348D01*
X0031000Y0041748D01*
X0027400Y0041748D01*
X0027400Y0040433D01*
X0029685Y0038148D01*
X0031000Y0038148D01*
X0031000Y0038769D02*
X0031600Y0038769D01*
X0031600Y0039368D02*
X0031000Y0039368D01*
X0031000Y0039966D02*
X0031600Y0039966D01*
X0031600Y0040565D02*
X0031000Y0040565D01*
X0031000Y0041163D02*
X0031600Y0041163D01*
X0031600Y0041762D02*
X0042200Y0041762D01*
X0042200Y0042360D02*
X0035200Y0042360D01*
X0035200Y0042959D02*
X0042200Y0042959D01*
X0042200Y0043557D02*
X0035200Y0043557D01*
X0034708Y0044156D02*
X0042609Y0044156D01*
X0043208Y0044754D02*
X0034109Y0044754D01*
X0033511Y0045353D02*
X0043806Y0045353D01*
X0044405Y0045951D02*
X0023195Y0045951D01*
X0023794Y0045353D02*
X0029089Y0045353D01*
X0029685Y0045948D02*
X0027400Y0043663D01*
X0027400Y0042348D01*
X0031000Y0042348D01*
X0031000Y0045948D01*
X0029685Y0045948D01*
X0031000Y0045353D02*
X0031600Y0045353D01*
X0031600Y0044754D02*
X0031000Y0044754D01*
X0031000Y0044156D02*
X0031600Y0044156D01*
X0031600Y0043557D02*
X0031000Y0043557D01*
X0031000Y0042959D02*
X0031600Y0042959D01*
X0031600Y0042360D02*
X0031000Y0042360D01*
X0031000Y0041762D02*
X0025400Y0041762D01*
X0025400Y0042360D02*
X0027400Y0042360D01*
X0027400Y0042959D02*
X0025400Y0042959D01*
X0025400Y0043557D02*
X0027400Y0043557D01*
X0027892Y0044156D02*
X0024991Y0044156D01*
X0024392Y0044754D02*
X0028491Y0044754D01*
X0027400Y0041163D02*
X0025400Y0041163D01*
X0025400Y0040565D02*
X0027400Y0040565D01*
X0027866Y0039966D02*
X0025016Y0039966D01*
X0024418Y0039368D02*
X0028465Y0039368D01*
X0029063Y0038769D02*
X0023819Y0038769D01*
X0023221Y0038171D02*
X0029662Y0038171D01*
X0032938Y0038171D02*
X0044379Y0038171D01*
X0043781Y0038769D02*
X0033537Y0038769D01*
X0034135Y0039368D02*
X0043182Y0039368D01*
X0042584Y0039966D02*
X0034734Y0039966D01*
X0035200Y0040565D02*
X0042200Y0040565D01*
X0042200Y0041163D02*
X0035200Y0041163D01*
X0009217Y0067498D02*
X0007800Y0067498D01*
X0007800Y0068096D02*
X0008233Y0068096D01*
D20*
X0051300Y0077048D03*
X0061300Y0102048D03*
X0131300Y0157048D03*
X0131300Y0167048D03*
X0127300Y0176048D03*
X0101300Y0172048D03*
X0171300Y0047048D03*
X0176300Y0047048D03*
D21*
X0176300Y0092048D01*
X0166300Y0102048D01*
X0121300Y0102048D01*
X0121300Y0092048D02*
X0161300Y0092048D01*
X0171300Y0082048D01*
X0171300Y0047048D01*
X0171946Y0033198D02*
X0171946Y0032520D01*
X0175920Y0028545D01*
X0175920Y0025252D01*
X0170442Y0019774D01*
X0165575Y0019774D01*
X0160301Y0025048D01*
X0098300Y0025048D01*
X0091300Y0032048D01*
X0056300Y0077048D02*
X0051300Y0077048D01*
X0056300Y0077048D02*
X0066300Y0087048D01*
X0066300Y0177048D01*
X0051300Y0192048D01*
X0061300Y0192048D02*
X0072300Y0181048D01*
X0098300Y0181048D01*
X0096300Y0172048D02*
X0091300Y0167048D01*
X0091300Y0162048D01*
X0101300Y0162048D02*
X0126531Y0186812D01*
X0128267Y0188548D01*
X0146800Y0188548D01*
X0153800Y0181548D01*
X0198300Y0181548D01*
X0198350Y0181598D01*
X0198350Y0182048D01*
X0131300Y0167048D02*
X0131300Y0157048D01*
X0127300Y0176048D02*
X0122300Y0176048D01*
X0111300Y0165048D01*
X0111300Y0137048D01*
X0096300Y0122048D01*
X0091300Y0122048D01*
X0091300Y0132048D02*
X0096300Y0132048D01*
X0101300Y0137048D01*
X0101300Y0162048D01*
X0101300Y0172048D02*
X0096300Y0172048D01*
X0126531Y0186812D02*
X0128300Y0188548D01*
X0051300Y0168048D02*
X0051300Y0112048D01*
X0061300Y0102048D01*
X0051300Y0168048D02*
X0045300Y0174048D01*
M02*
