%
M48
M72
T01C0.01378
T02C0.03150
T03C0.03200
T04C0.03937
T05C0.04000
T06C0.07480
%
T01
X51300Y77048
X61300Y102048
X131300Y157048
X131300Y167048
X127300Y176048
X101300Y172048
X171300Y47048
X176300Y47048
T02
X135926Y17548
X143800Y17548
X151674Y17548
X167221Y23749
X171946Y26898
X167221Y30048
X171946Y33198
X167221Y36347
T03
X21300Y22048
X31300Y22048
X46300Y22048
X56300Y22048
X56300Y42048
X46300Y42048
X31300Y42048
X21300Y42048
X91300Y42048
X91300Y52048
X91300Y62048
X91300Y72048
X91300Y82048
X91300Y92048
X91300Y102048
X91300Y112048
X91300Y122048
X91300Y132048
X91300Y142048
X91300Y152048
X91300Y162048
X85300Y174048
X98300Y181048
X98300Y195048
X81300Y192048
X71300Y192048
X61300Y192048
X51300Y192048
X45300Y174048
X121300Y162048
X121300Y152048
X121300Y142048
X121300Y132048
X121300Y122048
X121300Y112048
X121300Y102048
X121300Y92048
X121300Y82048
X121300Y72048
X121300Y62048
X121300Y52048
X121300Y42048
X121300Y32048
X143800Y39048
X148800Y31548
X153800Y39048
X155300Y81548
X135300Y81548
X91300Y32048
X141300Y152048
X155300Y174548
X138300Y181048
X138300Y195048
X155300Y194548
X181300Y152048
T04
X128052Y17548
X159548Y17548
T05
X11300Y72048
X11300Y82048
X11300Y92048
X11300Y102048
X11300Y112048
X11300Y122048
X11300Y132048
X11300Y142048
X16300Y162048
X36300Y162048
X36300Y187048
X16300Y187048
X76300Y87048
X76300Y77048
X76300Y67048
X198800Y72048
X198800Y82048
X198800Y92048
X198800Y102048
X198800Y112048
X198800Y122048
X198800Y132048
X198800Y142048
X198800Y152048
X198800Y162048
X198800Y172048
X198800Y182048
X198800Y192048
T06
X187300Y44418
X187300Y15678
M30
